<svg id="Layer_1" xmlns="http://www.w3.org/2000/svg" viewBox="0 0 1828.2 1828.2"><style/><g id="Artboard_6"><path d="M1828.2 914.1c0 18.4-16.5 36.1-17.6 54.2-1.1 18.3 13.2 37.9 11 55.9-2.2 18.2-20.7 33.9-24 51.7-3.3 18 8.5 39.2 4.2 56.9s-24.7 31.1-30.1 48.4 3.7 39.9-2.7 57-28.3 27.8-35.7 44.4-1.1 40.1-9.6 56.2-31.4 24.2-40.9 39.8-6 39.6-16.3 54.6-34.1 20.2-45.4 34.6-10.7 38.6-22.8 52.3-36.3 16-49.2 28.9-15.2 37.1-28.9 49.2-37.9 11.5-52.3 22.8-19.6 35-34.6 45.3-39 6.9-54.6 16.3-23.6 32.3-39.8 40.8-39.5 2.1-56.2 9.6-27.3 29.2-44.4 35.7c-17.1 6.5-39.5-2.7-57 2.7s-30.7 25.7-48.4 30.1c-17.8 4.4-38.8-7.5-56.9-4.2-17.9 3.2-33.5 21.8-51.7 24-18 2.2-37.6-12.1-56-11-18.1 1.1-35.9 17.6-54.2 17.6s-36.1-16.5-54.2-17.6c-18.3-1.1-37.9 13.2-55.9 11-18.2-2.2-33.9-20.7-51.7-24-18-3.3-39.2 8.5-56.9 4.2s-31.1-24.7-48.4-30.1-39.9 3.7-57-2.7-27.8-28.3-44.4-35.7-40.1-1.2-56.2-9.6-24.2-31.4-39.8-40.8-39.6-6-54.6-16.3-20.2-34.1-34.6-45.3-38.6-10.7-52.3-22.8-16-36.3-28.9-49.2-37.1-15.2-49.2-28.9-11.5-37.9-22.8-52.3-35-19.6-45.3-34.6-6.9-39-16.3-54.6-32.3-23.6-40.8-39.8-2.1-39.5-9.6-56.2-29.2-27.3-35.7-44.4 2.7-39.5-2.7-57-25.7-30.7-30.1-48.4 7.5-38.8 4.2-56.9c-3.2-17.9-21.8-33.5-24-51.7-2.2-18 12.1-37.6 11-55.9C16.5 950.2 0 932.5 0 914.1s16.5-36.1 17.6-54.2c1.1-18.3-13.2-37.9-11-56 2.2-18.2 20.7-33.9 24-51.7 3.3-18-8.5-39.2-4.2-56.9s24.7-31.1 30.1-48.5-3.7-40 2.7-57S87.5 562 95 545.4s1.2-40.1 9.6-56.2 31.4-24.2 40.8-39.8 6-39.6 16.3-54.6 34.1-20.2 45.3-34.6c11.3-14.3 10.7-38.6 22.8-52.3 12.1-13.6 36.3-16 49.2-28.9s15.2-37.1 28.9-49.2 37.9-11.5 52.3-22.8 19.6-35 34.6-45.4 39-6.9 54.6-16.3 23.6-32.4 39.8-40.9 39.5-2.1 56.2-9.6 27.3-29.2 44.4-35.7 39.5 2.7 57-2.7 30.7-25.7 48.4-30.1 38.8 7.5 56.9 4.2c17.9-3.2 33.5-21.8 51.7-24 18-2.2 37.6 12.1 55.9 11 18.2-1 36-17.5 54.4-17.5s36.1 16.5 54.2 17.6c18.3 1.1 37.9-13.2 55.9-11 18.2 2.2 33.9 20.7 51.7 24 18 3.3 39.2-8.5 56.9-4.2 17.6 4.3 31.2 24.7 48.5 30.1 17.4 5.4 39.9-3.7 57 2.7s27.8 28.3 44.4 35.7 40.1 1.1 56.2 9.6 24.2 31.4 39.8 40.9 39.6 6 54.6 16.3 20.2 34.1 34.6 45.4 38.6 10.7 52.3 22.8 16 36.3 28.9 49.2 37.1 15.2 49.2 28.9c12.1 13.6 11.5 37.9 22.8 52.3s35 19.5 45.4 34.6c10.4 15 6.9 39 16.3 54.6s32.4 23.6 40.9 39.8 2.1 39.5 9.6 56.2 29.2 27.3 35.7 44.4-2.7 39.5 2.7 57 25.7 30.7 30.1 48.5-7.5 38.8-4.2 56.9c3.2 17.9 21.8 33.5 24 51.7 2.2 18-12.1 37.6-11 56 1.1 18 17.6 35.7 17.6 54.1z" id="LOGO-3"/></g><path d="M206.3 805.7v-20.6h149v20.6h-51.8v216.7H431l9.6-8.1v-50.9h34.5v79.6H206.3v-20.6h43.6V805.7h-43.6zm303.8 108.4c0-19.2 3.8-36.9 11.5-53.3 7.7-16.3 18.8-30.5 33.3-42.4 14.5-11.9 32.4-21.2 53.7-27.8 21.2-6.6 45.4-10 72.6-10 27.1 0 51.4 3.3 72.8 10 21.4 6.6 39.5 15.9 54.2 27.8 14.7 11.9 25.9 26.1 33.5 42.4 7.7 16.3 11.5 34.1 11.5 53.3 0 19.2-3.8 36.9-11.5 53.3-7.7 16.3-18.9 30.5-33.5 42.4-14.7 11.9-32.8 21.2-54.2 27.8-21.4 6.6-45.7 10-72.8 10-27.2 0-51.4-3.3-72.6-10-21.3-6.6-39.1-15.9-53.7-27.8-14.5-11.9-25.6-26-33.3-42.4-7.6-16.4-11.5-34.1-11.5-53.3zm59.9 0c0 15.7 2.3 30.5 6.9 44.2 4.6 13.8 11.7 25.7 21.3 35.8 9.6 10.1 21.6 18.1 36.2 24 14.5 5.9 31.7 8.8 51.5 8.8 18.2 0 34-2.9 47.4-8.8 13.4-5.9 24.5-13.9 33.3-24 8.8-10.1 15.4-22 19.9-35.8 4.5-13.8 6.7-28.5 6.7-44.2 0-15.7-2.3-30.5-7-44.2-4.6-13.8-11.7-25.7-21.3-35.8-9.6-10.1-21.6-18.1-36.2-24-14.5-5.9-31.9-8.8-52-8.8-19.2 0-35.5 2.9-49.1 8.8-13.6 5.9-24.7 13.9-33.3 24-8.6 10.1-14.9 22-18.7 35.8-3.7 13.7-5.6 28.5-5.6 44.2zm631.1 111.3c-6.7 2.9-14.4 5.8-23 8.5s-17.7 5-27.1 7c-9.4 2-18.9 3.6-28.5 4.8-9.6 1.2-18.9 1.8-27.8 1.8-29.7 0-56.1-2.6-79.3-7.9-23.2-5.3-42.7-13.4-58.7-24.3s-28.1-24.8-36.4-41.7c-8.3-16.8-12.5-36.7-12.5-59.5 0-24.1 5-44.6 15.1-61.6s23.4-30.8 40-41.5 35.7-18.4 57.3-23.2c21.6-4.8 43.7-7.2 66.4-7.2 23.6 0 43.1 1.2 58.5 3.7 15.3 2.5 29.1 5.8 41.2 10v63h-30.7v-38.7l-6.7-7.4c-2.9-1.2-6.6-2.3-11-3.1-4.5-.9-9.2-1.6-14.1-2.2-5-.6-10.1-1-15.3-1.3-5.3-.2-10.1-.4-14.6-.4-17.6 0-34 2.1-49.4 6.3-15.3 4.2-28.7 10.7-40 19.5s-20.3 20.2-26.8 34.1c-6.6 13.9-9.8 30.5-9.8 49.9 0 34.9 11.3 61.9 33.8 81.1 22.5 19.2 54.9 28.8 97 28.8 10.5 0 19.6-.6 27.1-1.7s14.1-2.5 19.9-4.2l7.2-6.6v-69.7h-50.8v-20.6h132.7v20.6h-33.5v83.7zm77.7-111.3c0-19.2 3.8-36.9 11.5-53.3 7.7-16.3 18.8-30.5 33.3-42.4 14.5-11.9 32.4-21.2 53.7-27.8 21.2-6.6 45.4-10 72.6-10 27.1 0 51.4 3.3 72.8 10 21.4 6.6 39.5 15.9 54.2 27.8 14.7 11.9 25.9 26.1 33.5 42.4 7.7 16.3 11.5 34.1 11.5 53.3 0 19.2-3.8 36.9-11.5 53.3-7.7 16.3-18.9 30.5-33.5 42.4-14.7 11.9-32.8 21.2-54.2 27.8-21.4 6.6-45.7 10-72.8 10-27.2 0-51.4-3.3-72.6-10-21.3-6.6-39.1-15.9-53.7-27.8-14.5-11.9-25.6-26-33.3-42.4-7.7-16.4-11.5-34.1-11.5-53.3zm59.9 0c0 15.7 2.3 30.5 6.9 44.2 4.6 13.8 11.7 25.7 21.3 35.8 9.6 10.1 21.6 18.1 36.2 24 14.5 5.9 31.7 8.8 51.5 8.8 18.2 0 34-2.9 47.4-8.8 13.4-5.9 24.5-13.9 33.3-24 8.8-10.1 15.4-22 19.9-35.8 4.5-13.8 6.7-28.5 6.7-44.2 0-15.7-2.3-30.5-6.9-44.2-4.6-13.8-11.7-25.7-21.3-35.8-9.6-10.1-21.6-18.1-36.2-24-14.5-5.9-31.9-8.8-52-8.8-19.2 0-35.5 2.9-49.1 8.8-13.6 5.9-24.7 13.9-33.3 24-8.6 10.1-14.9 22-18.7 35.8-3.8 13.7-5.7 28.5-5.7 44.2z" fill="#fffce3" id="Layer_2"/></svg>