<?xml version="1.0" encoding="utf-8"?>
<!-- Generator: Adobe Illustrator 21.0.2, SVG Export Plug-In . SVG Version: 6.00 Build 0)  -->
<svg version="1.1" id="Layer_1" xmlns="http://www.w3.org/2000/svg" xmlns:xlink="http://www.w3.org/1999/xlink" x="0px" y="0px"
	 viewBox="0 0 1828.2 1828.2" style="enable-background:new 0 0 1828.2 1828.2;" xml:space="preserve">
<style type="text/css">
	.st0{display:none;fill:#FFFFFF;stroke:#000000;stroke-miterlimit:10;}
	.st1{display:none;stroke:#E20A0A;stroke-miterlimit:10;}
	.st2{display:none;fill:none;stroke:#000000;stroke-width:5;stroke-miterlimit:10;}
	.st3{display:none;fill:none;stroke:#000000;stroke-width:23;stroke-linecap:round;stroke-miterlimit:10;stroke-dasharray:0,74.9;}
	.st4{display:none;}
	.st5{display:inline;}
	.st6{fill:#1D1D1B;}
	.st7{fill:none;stroke:#B7B6B6;stroke-width:6;stroke-miterlimit:10;}
	.st8{display:inline;fill:url(#Literki_Biale_1_);}
	.st9{display:inline;fill:url(#Cien_w_Srodku_1_);}
	.st10{fill:#FFFCE3;}
</style>
<title>Beny_Alternatywa_2</title>
<g id="Artboard_6">
	<g id="LOGO-3">
		<path d="M1828.2,914.1c0,18.4-16.5,36.1-17.6,54.2c-1.1,18.3,13.2,37.9,11,55.9c-2.2,18.2-20.7,33.9-24,51.7
			c-3.3,18,8.5,39.2,4.2,56.9s-24.7,31.1-30.1,48.4s3.7,39.9-2.7,57s-28.3,27.8-35.7,44.4s-1.1,40.1-9.6,56.2s-31.4,24.2-40.9,39.8
			s-6,39.6-16.3,54.6s-34.1,20.2-45.4,34.6s-10.7,38.6-22.8,52.3s-36.3,16-49.2,28.9s-15.2,37.1-28.9,49.2s-37.9,11.5-52.3,22.8
			s-19.6,35-34.6,45.3s-39,6.9-54.6,16.3s-23.6,32.3-39.8,40.8s-39.5,2.1-56.2,9.6s-27.3,29.2-44.4,35.7c-17.1,6.5-39.5-2.7-57,2.7
			s-30.7,25.7-48.4,30.1c-17.8,4.4-38.8-7.5-56.9-4.2c-17.9,3.2-33.5,21.8-51.7,24c-18,2.2-37.6-12.1-56-11
			c-18.1,1.1-35.9,17.6-54.2,17.6s-36.1-16.5-54.2-17.6c-18.3-1.1-37.9,13.2-55.9,11c-18.2-2.2-33.9-20.7-51.7-24
			c-18-3.3-39.2,8.5-56.9,4.2s-31.1-24.7-48.4-30.1s-39.9,3.7-57-2.7s-27.8-28.3-44.4-35.7s-40.1-1.2-56.2-9.6s-24.2-31.4-39.8-40.8
			s-39.6-6-54.6-16.3s-20.2-34.1-34.6-45.3s-38.6-10.7-52.3-22.8s-16-36.3-28.9-49.2s-37.1-15.2-49.2-28.9s-11.5-37.9-22.8-52.3
			s-35-19.6-45.3-34.6s-6.9-39-16.3-54.6s-32.3-23.6-40.8-39.8s-2.1-39.5-9.6-56.2s-29.2-27.3-35.7-44.4s2.7-39.5-2.7-57
			s-25.7-30.7-30.1-48.4s7.5-38.8,4.2-56.9c-3.2-17.9-21.8-33.5-24-51.7c-2.2-18,12.1-37.6,11-55.9C16.5,950.2,0,932.5,0,914.1
			s16.5-36.1,17.6-54.2c1.1-18.3-13.2-37.9-11-56c2.2-18.2,20.7-33.9,24-51.7c3.3-18-8.5-39.2-4.2-56.9s24.7-31.1,30.1-48.5
			s-3.7-40,2.7-57S87.5,562,95,545.4s1.2-40.1,9.6-56.2s31.4-24.2,40.8-39.8s6-39.6,16.3-54.6s34.1-20.2,45.3-34.6
			c11.3-14.3,10.7-38.6,22.8-52.3c12.1-13.6,36.3-16,49.2-28.9s15.2-37.1,28.9-49.2s37.9-11.5,52.3-22.8s19.6-35,34.6-45.4
			s39-6.9,54.6-16.3s23.6-32.4,39.8-40.9s39.5-2.1,56.2-9.6s27.3-29.2,44.4-35.7s39.5,2.7,57-2.7s30.7-25.7,48.4-30.1
			s38.8,7.5,56.9,4.2c17.9-3.2,33.5-21.8,51.7-24c18-2.2,37.6,12.1,55.9,11C877.9,16.5,895.7,0,914.1,0s36.1,16.5,54.2,17.6
			c18.3,1.1,37.9-13.2,55.9-11c18.2,2.2,33.9,20.7,51.7,24c18,3.3,39.2-8.5,56.9-4.2c17.6,4.3,31.2,24.7,48.5,30.1
			c17.4,5.4,39.9-3.7,57,2.7c17.1,6.4,27.8,28.3,44.4,35.7s40.1,1.1,56.2,9.6s24.2,31.4,39.8,40.9s39.6,6,54.6,16.3
			s20.2,34.1,34.6,45.4s38.6,10.7,52.3,22.8s16,36.3,28.9,49.2s37.1,15.2,49.2,28.9c12.1,13.6,11.5,37.9,22.8,52.3
			s35,19.5,45.4,34.6c10.4,15,6.9,39,16.3,54.6s32.4,23.6,40.9,39.8s2.1,39.5,9.6,56.2s29.2,27.3,35.7,44.4s-2.7,39.5,2.7,57
			s25.7,30.7,30.1,48.5s-7.5,38.8-4.2,56.9c3.2,17.9,21.8,33.5,24,51.7c2.2,18-12.1,37.6-11,56
			C1811.7,878,1828.2,895.7,1828.2,914.1z"/>
		<circle class="st0" cx="914.2" cy="914.1" r="478"/>
		<circle class="st1" cx="914.2" cy="914.1" r="364"/>
		<circle class="st2" cx="914.2" cy="914.1" r="381.3"/>
		<circle class="st3" cx="914.2" cy="914.1" r="429.1"/>
	</g>
	<g id="Text_White_copy_4" class="st4">
		<g id="Duzy_CIen" class="st5">
			<path class="st6" d="M2065.8,1291c-4.8,0-9.6-0.4-14.4-1.1c-18-2.9-35-5.6-52-8.2c-52.1-8.1-100.3-15.3-147.2-22
				c-10.7,5-21.3,5.3-28.4,5.6c-1.2,0-2.2,0.1-3.1,0.1c-6.8,0.5-14,0.7-22.1,0.7c-4.2,0-8.7-0.1-13.8-0.2h-0.6
				c-8.7-0.2-19.5-0.5-30.2-2.6c-17.8-3.1-26.5-12.5-30.7-21c-36.4-4.6-71.2-8.7-106-12.6c-120.2-13.3-239.1-22.7-353.4-28.1
				c-98.5-4.7-200.5-6.9-311.8-6.9c-23.3,0-47.3,0.1-71.2,0.3c-134.4,1.1-281.9,5.2-464.2,12.9c-202.9,8.6-405.8,19.6-595,30.3
				c-3.6,0.4-7.2,0.6-10.8,0.7c-25.4,0-37.4-16.9-40-31.3c-1-5.4-0.8-11,0.6-16.4c0.1-1.9,0.4-3.8,0.9-5.7l0.4-1.4l0.6-1.4
				c1-2.4,2.3-4.6,3.9-6.6l0.3-0.3l0.5-0.6c1-1.2,2.1-2.2,3.3-3.2l0.4-0.3l0.4-0.3c0.8-0.6,1.5-1.1,2.4-1.6l0.5-0.3
				c0.5-0.3,1.1-0.6,1.6-0.9l0.5-0.2c0.5-0.3,1.1-0.5,1.7-0.8l0.5-0.2l1.3-0.6l1.1-0.4c1.8-0.9,3.6-1.8,5.5-2.5
				c3.3-1.2,6.6-2.3,10-3.2l0.4-0.1c16.1-4.9,32.5-8.5,49.2-10.8c-32.2-17.6-57.6-49.7-74.5-94.6c-10.7-28.4-17.9-59.4-22-94.2
				l-3-0.1l-0.3,2l-21.6-3.4l-14.9-2.9l-8.2-2.9c-9-4.1-15.8-11.8-18.8-21.1c-2.3-6.7-2.7-14-1.1-20.9l0.4-3.1
				c0.6-4.9,2.7-9.6,6-13.3c1.5-1.7,2.9-3.2,4.3-4.7c2.4-2.5,5-5.1,7.5-7.7c0.9-0.9,1.9-1.8,2.8-2.8l1.1-1.1l1.1-1.1
				c0.9-0.8,1.7-1.7,2.6-2.5c1.7-1.6,3.5-3.3,5.3-4.9l1.1-1l1.5-1.3c2.5-2.2,4.9-4.4,6.8-6l1.2-1c2.3-2,4.8-4.1,7.6-6.3l0.6-0.5
				c2.5-2.1,5.3-4.3,8.1-6.5l0.1-0.1c2.4-1.9,4.8-3.7,7.2-5.6c0.2-4,0.5-8,0.8-12c-4.3,0.1-8.5,0.1-12.5,0.1h-0.5h-4.3
				c-25.8,0-40.3-1.4-50.3-5.7c-2.4,0.2-5.1,0.4-8,0.5c-10,0.5-20.1,0.5-23.4,0.5h-2.8c-10.3,0.1-20.6-0.4-30.8-1.4
				c-2.1-0.2-5.5-0.5-8.8-1c-31.4-5.1-35.5-28.7-36.1-35.8c-0.3-4.1-0.7-8.4-1.1-12.5c-6.1-62.2-18.2-123.6-36.1-183.5
				c-2-6.6-2.1-13.7-0.4-20.4c0.1-4,1.2-7.9,3.1-11.4l1.2-2.2l1.5-1.8c1.4-1.6,2.9-3.1,4.7-4.3l0.8-0.5l0.9-0.5
				c1.1-0.7,2.3-1.2,3.5-1.7l0.8-0.3l0.5-0.2l0.4-0.1c8.9-5,19.8-6.1,35.3-7.2c9.6-0.7,20.9-1.2,23.9-1.2h2.3
				c10.3-0.1,20.6,0.4,30.8,1.4c9.3,0.6,35.5,2.8,43.3,28.7c1.3,4.5,2.7,9.1,4,13.7h0.8c10.6-0.7,21.4-0.9,23.3-0.9h2.3
				c10.3-0.1,20.6,0.4,30.8,1.4c1.5,0.1,4.8,0.4,8.3,0.9c1.3,0.2,2.5,0.4,3.7,0.7c0.1-2.4,0.5-4.9,1.1-7.2c0.1-3.8,1.1-7.6,2.9-11
				l1.3-2.5l1.8-2.1c1.3-1.6,2.9-3,4.6-4.2l0.7-0.5l1-0.6c1.2-0.7,2.4-1.3,3.7-1.8l0.8-0.3l0.5-0.2c8.9-5,19.8-6.1,35.2-7.2
				c9.6-0.7,20.9-1.2,23.9-1.2h2.3c10.3-0.1,20.6,0.4,30.8,1.4c9.3,0.6,35.5,2.8,43.3,28.6c1.3,4.1,2.9,8.7,4.5,12.9
				c21.8,58.2,54,111.8,93.7,155.7c11-0.6,22.3-0.8,34.4-0.8c2.8,0,5.6,0,8.4,0c35.8,0.4,63.2,2.3,88.9,6.4
				c39.3,6.2,71,17.7,96.9,35.3c4,2.7,7.8,5.5,11.4,8.4c1.1-2.7,2.2-5.5,3.4-8.2l0.1-0.2c2-4.7,4.1-9.4,6.3-14l0.2-0.6l0.4-0.7
				c1-2.1,2-4.2,3.1-6.3l0.3-0.7c1.1-2.3,2.3-4.6,3.5-6.8c1.2-2.3,2.3-4.5,3.5-6.7l0.3-0.7c1.1-2.1,2.3-4.2,3.5-6.3l0.6-1
				c1.2-2.1,2.4-4.2,3.6-6.3l0.1-0.2c1.2-2.1,2.4-4.1,3.6-6l0.6-1c1.2-2,2.4-4,3.6-5.9l0.7-1.2c1.3-2,2.5-4,3.8-6
				c32.3-50,64.8-85.2,99.6-107.7c1.2-0.8,2.5-1.6,4-2.4l1-0.5c1.2-0.7,2.4-1.3,3.6-1.9l0.4-0.2c2.6-1.3,5.3-2.6,8.1-3.7
				c24.5-11.7,49.5-13.2,68.7-13.2c8.1,0,15.9,0.3,23.5,0.6l1.9,0.1c25.1,1,56.4,2.1,83.7,23.7c15.4,12.1,21.7,29.2,25.9,40.4l0.7,2
				c4.2,11.2,8.1,22.4,11.9,33.3c3.9,11.2,7.6,22,11.6,32.5c0.5-0.7,1.1-1.2,1.6-1.8c0.7-0.8,1.5-1.5,2.3-2.1c0.5-0.4,1-0.8,1.5-1.1
				l0.1-0.1c0.6-0.4,1.3-0.9,2-1.2c0.5-0.3,1-0.5,1.5-0.8s1-0.5,1.5-0.7s1-0.4,1.4-0.6l1.2-0.4l0,0c9.2-5,18.7-5.6,23.7-5.9h0.6
				c11.8-1.4,23.2-1.4,33.4-1.5c2.6,0,13.4,0.3,24,1c18.3,1.2,35.6,2.3,46.8,17.6c1.5,2,2.8,4.2,3.8,6.5c10.1-4,20.4-7.6,30.7-10.8
				c42.3-13.1,87.3-19.8,133.8-19.8c6,0,12,0.1,18.1,0.3l4.5,0.2c27.1,0.9,66.5,2.2,95.2,26.2l1.2-2.1l1.5-2.5
				c0.9-1.6,1.9-3.1,2.8-4.7c0.5-0.9,1.1-1.7,1.6-2.6l1.2-2c0.5-0.9,1.1-1.7,1.6-2.6c1.5-2.4,3.1-4.8,4.6-7.2
				c14.7-22.6,31.3-43.9,49.7-63.6c17.8-18.9,33.7-32.5,50-42.8c1.2-0.8,2.5-1.5,3.8-2.3l0.7-0.4c4.2-2.5,8.5-4.6,13-6.5
				c4.5-2.2,9.2-4,13.9-5.5c7.9-2.3,16.1-3.9,24.3-4.6c11.2-1.1,23.1-1.7,35.5-1.7c9.6,0,19.5,0.3,30.2,1
				c21.5,1.3,50.9,3.1,75.6,21.5c7,5.2,12.9,11.7,17.4,19.1c0.6-0.7,1.3-1.3,1.9-1.9l0.3-0.3c0.6-0.5,1.1-1,1.8-1.4l0.1-0.1
				c0.8-0.5,1.5-1,2.3-1.5c0.5-0.3,1-0.6,1.6-0.9l0,0c0.5-0.2,1.1-0.5,1.6-0.7s0.9-0.4,1.4-0.5l0.2-0.1l0.8-0.3l0.2-0.1
				c9-4.8,18.4-5.5,23.8-6h0.4c11.8-1.4,23.3-1.4,33.4-1.5h0.6h4.3c38.4,0,51.9,3.2,62.8,14.7c7,7.4,10.7,17.2,10.4,27.3
				c-0.7,24.1-0.9,46.7-0.6,68.1c2.1-2.6,4.1-5.4,5.9-8.2c1-1.6,2.1-3.1,3.4-4.4c0.4-0.5,0.9-0.9,1.4-1.3s1.2-1,2-1.7
				c0.5-0.3,1-0.7,1.4-1s1.1-0.7,1.8-1.1c0.4-0.2,0.9-0.5,1.4-0.7c0.5-0.2,1-0.5,1.5-0.7l1.1-0.5l0,0c0.4-0.2,0.8-0.3,1.2-0.4
				c9.1-5,18.4-5.6,23.2-5.8h0.7c11.8-1.4,23.3-1.4,33.5-1.5h2.3c10.4-0.1,20.9,0.4,31.3,1.5l1.2,0.1l0.5,0.1
				c12.4,1.7,30.8,4.3,39.5,23.7c4.1,9.2,4.5,19.6,0.9,29c11-1.5,21.9-2.7,32.6-3.7c26.1-2.3,51.9-3.4,76.7-3.4
				c9.1,0,18.2,0.2,27.3,0.5c1-6.4,2.1-13,3.4-20.2c8.3-45.6,18.6-81.1,32.6-111.6c0.9-2.1,2.2-4,3.6-5.8l0.2-0.3
				c0.4-0.5,0.9-1,1.4-1.5c0.7-0.7,1.5-1.4,2.3-2.1c0.5-0.4,1-0.8,1.6-1.2l0.2-0.1c0.7-0.5,1.3-0.9,2-1.2c0.4-0.2,0.9-0.5,1.4-0.7
				l0.1-0.1c0.5-0.2,1-0.5,1.5-0.7c0.4-0.2,0.9-0.4,1.4-0.6l1-0.3l0,0c9.2-5,18.7-5.6,23.6-5.9h0.6c11.8-1.4,23.2-1.4,33.4-1.5h2.4
				c4.2,0,8.1,0,11.8,0.2l0.7-2.6c0.8-2.9,2-5.6,3.7-8c0.6-0.9,1.2-1.7,1.9-2.5c0.8-0.9,1.7-1.8,2.6-2.6l0,0
				c0.8-0.7,1.4-1.2,1.9-1.5c0.7-0.5,1.5-1,2.2-1.5c0.5-0.3,1-0.5,1.5-0.8l0.2-0.1c0.5-0.2,1-0.5,1.6-0.7s0.9-0.4,1.4-0.5h0.1l1-0.3
				h0.1c9.2-4.9,18.8-5.6,23.8-5.9h0.5c11.8-1.4,23.2-1.4,33.3-1.5c3.3,0,14,0.3,24,1c18.2,1.2,35.5,2.2,46.7,17.5
				c6.8,9.3,9.1,21.2,6,32.3c-6.3,23.3-11.9,46.4-16.8,68.5c-7.5,34.4-15.8,74.4-18.9,113.7c-0.7,11.6-6.9,22.2-16.6,28.6
				c4.7,5.4,9.1,11.2,13,17.2c16.3,24.9,24.2,53.5,24.9,90c0.9,50.1-10.3,99.7-32.7,144.5c-21,42.1-51.7,80.7-91.4,115.4
				c50.1,7.3,103.1,15.5,160.5,24.6c16.6,2.5,29.5,15.9,31.4,32.6c1,8.6,0.4,29.7-26.2,41.2c-9.5,4.4-19,6.3-26.7,7.9h-0.2
				c-1.5,0.3-3,0.6-4.5,0.9c-2.1,0.5-4.4,1-6.7,1.6C2097,1287.4,2081.5,1291,2065.8,1291z M1652.8,1134.2
				c31.6,3.2,63.3,6.7,95.2,10.4c19.2,2.2,39.2,4.7,59.4,7.2l0.8-0.6c1.7-1.2,3.4-2.4,5.1-3.6l3.4-2.4l0.5-0.4
				c1.1-0.8,2.2-1.5,3.2-2.3c2.8-2.1,5.2-3.8,7.4-5.5c35.7-27.6,64.1-58,84.4-90.4c1-1.6,2-3.2,2.9-4.8l0.7-1.1
				c1-1.6,1.9-3.2,2.8-4.8l0.2-0.3c0.9-1.6,1.7-3.1,2.6-4.7l0.5-1c0.9-1.7,1.8-3.4,2.6-5.1l0.2-0.4c0.8-1.6,1.6-3.2,2.4-4.8l0.4-0.8
				c0.8-1.8,1.6-3.5,2.4-5.3l0.2-0.5c0.7-1.6,1.5-3.3,2.2-5.1l0.2-0.4c0.8-1.9,1.5-3.8,2.3-5.6l0.1-0.2c0.7-1.9,1.4-3.8,2.1-5.6
				l0.1-0.2c0.7-1.9,1.4-3.8,2-5.7l0.1-0.2c1.3-3.8,2.5-7.8,3.6-11.8v-0.2c2.2-7.9,4-15.9,5.4-23.9c1.1-7.5,1.7-15.1,2-22.7
				c0.4-12.4,0.6-25.3-1.3-35.8c-3.4-19.4-15.1-37.7-32.9-51.8c-12.1-9-26.8-16.5-43.6-22.1c-4.6-1.5-9.3-3-14.2-4.3l-2.4-0.6
				l-1.8-0.4c-2.8-0.6-5.8-1.2-8.8-1.8c-2.5-0.5-5-0.9-7.6-1.3l-2.6-0.4c-1.1,0-2.1,0-3-0.1c-2.1-0.2-4.1-0.5-6.1-1h-0.1l-1.3-0.2
				l-4.1-0.4l-2.4-0.2l-4.9-0.1h-0.6c-2.1,0.2-3.6,0.2-4.6,0.3s-2.2,0.3-3.3,0.3l-1.5,0.1c-1.1,0-3.2,0.2-4.1,0.2
				c-2.4,0.2-4.8,0.5-7.1,0.8c-2.1,0.2-4.2,0.5-6.3,0.8c-1.2,0.1-2.4,0.2-3.6,0.3l-0.7,0.1c-1.3,0.3-2.8,0.6-4.5,0.8
				c-5.3,0.8-10.8,1.7-16.2,2.7c-11.7,2.1-23.7,4.7-35.7,7.5c-3.3,0.8-9.9,2.5-15.1,3.9c-5.4,1.5-10.9,3-16.5,4.6
				c-10.8,3.2-21.9,6.7-32.9,10.4c-20.5,7-41.5,15-62.5,23.8c-10.5,4.4-20.4,8.7-29.8,13c4.1,20.3,9,39.8,14.7,58.1
				c16.6,53.9,41.5,103.1,73.9,146.1c7.9,10.6,9.7,24.6,4.7,36.8C1659.4,1126.3,1656.4,1130.6,1652.8,1134.2L1652.8,1134.2z
				 M265,1048.3c-10.2,11.7-21.4,22.4-33.5,32.1c-26.9,21.5-58.2,39.4-93.5,53.3c64.5-3.4,130.1-6.8,196.4-9.9
				c-21.5-12.5-41.5-31.7-57.4-55.3C272.7,1062,268.6,1055.2,265,1048.3z M1355.1,1111.6c10.2,0.5,20.3,1,30.4,1.6
				c40.8,2.2,82.2,5,124.1,8.2c-17.2-23.7-32.4-48.9-45.4-75.1c-5.6,4.8-11.2,9.3-16.8,13.6c-27.7,21.3-54.7,37.1-82.7,48.1
				C1361.6,1109.2,1358.4,1110.4,1355.1,1111.6L1355.1,1111.6z M667.8,1064.6c-3.7,3.1-7.5,6.1-11.2,9.1c-20.6,16-40.6,28.9-60.7,39
				c31.7-1.2,62.4-2.2,92.1-3.1c-1.1-1.6-2-3.3-2.8-5C679,1091.2,673.2,1077.9,667.8,1064.6L667.8,1064.6z M780.6,878.3
				c3.9,62.1,21.9,127.5,53.3,194.2c4.9,10.5,4.8,22.8-0.5,33.2c55.7-1.1,108.6-1.8,159.6-1.9c-25.1-37.1-41.8-79.1-49-123.3
				c-8.6-51.9-4.2-103.2,1.8-150.9c0.5-4,1.1-8,1.7-11.8c3.1-20.9,3.4-30.2,0.7-34.8l-3.5,0.8c-7.6,1.9-14.6,3.9-21.3,6.1
				c-39.7,12.7-76.9,32.1-110,57.4c-11.5,8.9-22.4,18.5-32.8,28.7C780.5,876.8,780.6,877.6,780.6,878.3L780.6,878.3z M-34,1079.2
				c1.1,0.8,2.2,1.6,3.3,2.3l3.2-0.7c1.8-0.4,3.6-0.8,5.5-1.2l1.9-0.5l2.6-0.6c8.6-2.2,16.3-4.4,23.3-6.6
				c12.4-3.9,24.5-8.5,36.4-13.7c9.8-4.5,19.2-9.4,28.1-14.6l1.4-0.8c1.7-1,3.4-2,5-3.1l1.9-1.2c1.5-0.9,3-1.9,4.5-2.9l0.6-0.4
				l1.4-1c1.5-1,3-2,4.4-3.1l0.9-0.6l1-0.7c2.2-1.6,4.1-3,5.9-4.3c15.4-12,28.2-25,38.1-38.6c0.7-1,1.5-2,2.2-3.1l0.6-0.9
				c0.6-0.8,1.1-1.7,1.7-2.5l0.5-0.7c0.7-1.1,1.3-2.1,2-3.2l0.4-0.6c0.5-0.9,1.1-1.8,1.6-2.7l0.5-0.9c0.6-1.1,1.2-2.1,1.8-3.2
				l0.2-0.3c0.6-1.1,1.2-2.2,1.7-3.4l0.3-0.7c0.5-1,1-2,1.4-3l0.3-0.6c0.5-1.2,1.1-2.4,1.6-3.5l0.1-0.2c0.5-1.2,1-2.4,1.5-3.6
				l0.2-0.6c0.5-1.3,1-2.5,1.4-3.7l0,0c0.5-1.3,0.9-2.6,1.3-3.9l0.1-0.3c0.4-1.2,0.8-2.4,1.1-3.6l0.1-0.5c0.8-2.5,1.5-5.2,2.1-7.8
				l0.1-0.3c0.6-2.6,1.1-5.1,1.5-7.5c0.9-6.9,1.1-13.9,0.8-20.9c-1-19.9-11.1-38.4-28.5-52.2c-7.1-5.2-14.9-9.7-23-13.2
				c-4.8-2.1-9.7-3.9-14.8-5.5c-2.9-0.9-5.9-1.8-8.9-2.6l-1.4-0.4l-1.1-0.2l-1.8-0.4l-2.5-0.5c-2.9-0.6-5.9-1.1-8.9-1.6l-2.8-0.4
				l-1.4-0.2l-3-0.3c-0.9,0-1.8,0-2.6-0.1l-8.4,0.4H53c-0.8,0.2-1.6,0.3-2.4,0.4c-2.8,0.4-5.7,0.9-8.5,1.4
				c-5.9,1.1-11.3,2.2-16.3,3.4l-4.4,1.1l-3.6,1c-2.7,0.8-5.4,1.5-8,2.3c-5.7,1.7-11.4,3.7-17,5.7c-28.2,10.4-55.1,24-80.2,40.5
				c-0.2,30.3,2.1,60.5,7,90.4C-71.4,1027.5-56.6,1061-34,1079.2z M444,1052.6c2.4,1.8,4.7,3.4,7,4.8c6.9-2.1,13.6-4.5,20.3-7.4
				c9.2-4.3,18.1-9.1,26.8-14.4l0.1-0.1c2.1-1.3,4.1-2.6,6.3-4l0.5-0.3c2-1.3,4-2.6,6-4l0.7-0.5c2.1-1.4,4-2.8,5.9-4.2l0.6-0.4
				c2-1.5,4-2.9,5.9-4.4c13.8-10.8,26.9-22.3,39.3-34.7c1.3-1.3,2.7-2.4,4.2-3.4c0.3-0.2,0.6-0.4,0.9-0.6c1.2-0.8,2.5-1.4,3.8-2
				l0.6-0.3c0.8-0.3,1.6-0.7,2.4-0.9c9-4.9,17.9-5.6,22.4-5.9h0.1l0.9-0.1c11.9-1.4,23.5-1.5,33.8-1.5h4.9
				c-3.6-16-6.6-32.1-8.7-47.9c0,0-59.5,0.6-52.3-24.8h-4c-2.7,0.1-5.3,0.1-8,0.2l-4.1,0.3l-0.6,0.1c-2,0.2-4.1,0.4-6.2,0.7
				l-1.4,0.2l-0.6,0.1c-1.9,0.3-3.7,0.6-5.6,0.9c-4.6,0.8-9.2,1.7-13.8,2.7l-4,0.9l-1.4,0.3c-2,0.5-4.1,1-6.2,1.6
				c-10.5,2.9-21.6,6.5-33,10.7c-25.5,9.5-52.7,22.1-85.3,39.7c-2.2,1.2-4.6,2.2-7,3.1C403,1012.3,428.3,1040.3,444,1052.6
				L444,1052.6z M1229.4,1038.7c2.6,1.9,5.2,3.7,8,5.4c8.3-2.3,16.5-5.1,24.4-8.4l2.2-0.9c1.9-0.9,3.9-1.9,6.2-3l0.7-0.3
				c2-1,4-2,6.1-3.2l1-0.5c2-1.1,4.1-2.2,6-3.3l0.8-0.4c4.1-2.4,8.2-4.9,12.3-7.5l0.8-0.5c1.9-1.3,3.8-2.5,5.7-3.8l1-0.7
				c1.9-1.3,3.8-2.6,5.6-4l0.8-0.6c1.9-1.4,3.8-2.8,5.7-4.2c13.3-10.4,26-21.5,37.9-33.4c1.3-1.3,2.7-2.4,4.2-3.4l0.6-0.4l0.2-0.1
				c1.2-0.8,2.5-1.5,3.8-2.1l0.3-0.1l0.5-0.2c0.7-0.3,1.5-0.6,2.3-0.9c9-4.9,17.9-5.6,22.4-5.9h0.1l0.9-0.1
				c11.9-1.4,23.5-1.5,33.8-1.5h4.6c-1.3-4.4-2.6-8.9-3.8-13.4c-4.1,0.2-8.4,0.2-12.9,0.2c-4.2,0-8.7-0.1-13.8-0.2h-0.6
				c-8.7-0.2-19.6-0.5-30.3-2.6h-0.1c-26-4.5-32.2-23.1-33.7-30.9c-1-5.5-0.8-11.1,0.5-16.5v-0.3c0.1-1.9,0.4-3.7,0.9-5.5l0.3-1.2
				c-4.8,0.8-9.6,1.6-14.3,2.6c-2.7,0.6-5.4,1.2-7.9,1.7l-1.3,0.3l-3.1,0.8c-11.2,2.9-22.9,6.6-34.7,10.9
				c-26.4,9.6-53.8,22.2-86.2,39.6c-2.2,1.2-4.6,2.2-7,3.1C1188.4,998.4,1213.7,1026.4,1229.4,1038.7L1229.4,1038.7z M484.2,710
				c-8,9.2-16.1,19.5-24.3,30.9c-16.5,23-36.5,55.4-50.4,92.6c23.6-7.1,47.8-12.2,72.3-15.3c14.3-1.8,29.2-3,47.2-3.7
				c-1.3-2.5-2.6-5-3.8-7.4c-2.7-5.3-5.6-10.7-8.3-16.3c-9.3-18.8-17.6-38-24.7-57.7C489.3,725.2,486.7,717.5,484.2,710z
				 M1273.8,691.3c-10.2,11.3-19.7,23.3-28.5,35.7c-16.6,23.1-36.7,55.7-50.6,93.2c25.1-7.4,50.8-12.8,76.8-15.9
				c14.6-1.8,30.4-3,48.8-3.7c-1.3-2.5-2.6-5-3.8-7.4c-2.6-5-5.5-10.7-8.3-16.3c-9.3-18.8-17.6-38-24.7-57.7
				c-3.1-8.6-6-17.1-8.7-25.3L1273.8,691.3z"/>
			<path class="st7" d="M2065.8,1291c-4.8,0-9.6-0.4-14.4-1.1c-18-2.9-35-5.6-52-8.2c-52.1-8.1-100.3-15.3-147.2-22
				c-10.7,5-21.3,5.3-28.4,5.6c-1.2,0-2.2,0.1-3.1,0.1c-6.8,0.5-14,0.7-22.1,0.7c-4.2,0-8.7-0.1-13.8-0.2h-0.6
				c-8.7-0.2-19.5-0.5-30.2-2.6c-17.8-3.1-26.5-12.5-30.7-21c-36.4-4.6-71.2-8.7-106-12.6c-120.2-13.3-239.1-22.7-353.4-28.1
				c-98.5-4.7-200.5-6.9-311.8-6.9c-23.3,0-47.3,0.1-71.2,0.3c-134.4,1.1-281.9,5.2-464.2,12.9c-202.9,8.6-405.8,19.6-595,30.3
				c-3.6,0.4-7.2,0.6-10.8,0.7c-25.4,0-37.4-16.9-40-31.3c-1-5.4-0.8-11,0.6-16.4c0.1-1.9,0.4-3.8,0.9-5.7l0.4-1.4l0.6-1.4
				c1-2.4,2.3-4.6,3.9-6.6l0.3-0.3l0.5-0.6c1-1.2,2.1-2.2,3.3-3.2l0.4-0.3l0.4-0.3c0.8-0.6,1.5-1.1,2.4-1.6l0.5-0.3
				c0.5-0.3,1.1-0.6,1.6-0.9l0.5-0.2c0.5-0.3,1.1-0.5,1.7-0.8l0.5-0.2l1.3-0.6l1.1-0.4c1.8-0.9,3.6-1.8,5.5-2.5
				c3.3-1.2,6.6-2.3,10-3.2l0.4-0.1c16.1-4.9,32.5-8.5,49.2-10.8c-32.2-17.6-57.6-49.7-74.5-94.6c-10.7-28.4-17.9-59.4-22-94.2
				l-3-0.1l-0.3,2l-21.6-3.4l-14.9-2.9l-8.2-2.9c-9-4.1-15.8-11.8-18.8-21.1c-2.3-6.7-2.7-14-1.1-20.9l0.4-3.1
				c0.6-4.9,2.7-9.6,6-13.3c1.5-1.7,2.9-3.2,4.3-4.7c2.4-2.5,5-5.1,7.5-7.7c0.9-0.9,1.9-1.8,2.8-2.8l1.1-1.1l1.1-1.1
				c0.9-0.8,1.7-1.7,2.6-2.5c1.7-1.6,3.5-3.3,5.3-4.9l1.1-1l1.5-1.3c2.5-2.2,4.9-4.4,6.8-6l1.2-1c2.3-2,4.8-4.1,7.6-6.3l0.6-0.5
				c2.5-2.1,5.3-4.3,8.1-6.5l0.1-0.1c2.4-1.9,4.8-3.7,7.2-5.6c0.2-4,0.5-8,0.8-12c-4.3,0.1-8.5,0.1-12.5,0.1h-0.5h-4.3
				c-25.8,0-40.3-1.4-50.3-5.7c-2.4,0.2-5.1,0.4-8,0.5c-10,0.5-20.1,0.5-23.4,0.5h-2.8c-10.3,0.1-20.6-0.4-30.8-1.4
				c-2.1-0.2-5.5-0.5-8.8-1c-31.4-5.1-35.5-28.7-36.1-35.8c-0.3-4.1-0.7-8.4-1.1-12.5c-6.1-62.2-18.2-123.6-36.1-183.5
				c-2-6.6-2.1-13.7-0.4-20.4c0.1-4,1.2-7.9,3.1-11.4l1.2-2.2l1.5-1.8c1.4-1.6,2.9-3.1,4.7-4.3l0.8-0.5l0.9-0.5
				c1.1-0.7,2.3-1.2,3.5-1.7l0.8-0.3l0.5-0.2l0.4-0.1c8.9-5,19.8-6.1,35.3-7.2c9.6-0.7,20.9-1.2,23.9-1.2h2.3
				c10.3-0.1,20.6,0.4,30.8,1.4c9.3,0.6,35.5,2.8,43.3,28.7c1.3,4.5,2.7,9.1,4,13.7h0.8c10.6-0.7,21.4-0.9,23.3-0.9h2.3
				c10.3-0.1,20.6,0.4,30.8,1.4c1.5,0.1,4.8,0.4,8.3,0.9c1.3,0.2,2.5,0.4,3.7,0.7c0.1-2.4,0.5-4.9,1.1-7.2c0.1-3.8,1.1-7.6,2.9-11
				l1.3-2.5l1.8-2.1c1.3-1.6,2.9-3,4.6-4.2l0.7-0.5l1-0.6c1.2-0.7,2.4-1.3,3.7-1.8l0.8-0.3l0.5-0.2c8.9-5,19.8-6.1,35.2-7.2
				c9.6-0.7,20.9-1.2,23.9-1.2h2.3c10.3-0.1,20.6,0.4,30.8,1.4c9.3,0.6,35.5,2.8,43.3,28.6c1.3,4.1,2.9,8.7,4.5,12.9
				c21.8,58.2,54,111.8,93.7,155.7c11-0.6,22.3-0.8,34.4-0.8c2.8,0,5.6,0,8.4,0c35.8,0.4,63.2,2.3,88.9,6.4
				c39.3,6.2,71,17.7,96.9,35.3c4,2.7,7.8,5.5,11.4,8.4c1.1-2.7,2.2-5.5,3.4-8.2l0.1-0.2c2-4.7,4.1-9.4,6.3-14l0.2-0.6l0.4-0.7
				c1-2.1,2-4.2,3.1-6.3l0.3-0.7c1.1-2.3,2.3-4.6,3.5-6.8c1.2-2.3,2.3-4.5,3.5-6.7l0.3-0.7c1.1-2.1,2.3-4.2,3.5-6.3l0.6-1
				c1.2-2.1,2.4-4.2,3.6-6.3l0.1-0.2c1.2-2.1,2.4-4.1,3.6-6l0.6-1c1.2-2,2.4-4,3.6-5.9l0.7-1.2c1.3-2,2.5-4,3.8-6
				c32.3-50,64.8-85.2,99.6-107.7c1.2-0.8,2.5-1.6,4-2.4l1-0.5c1.2-0.7,2.4-1.3,3.6-1.9l0.4-0.2c2.6-1.3,5.3-2.6,8.1-3.7
				c24.5-11.7,49.5-13.2,68.7-13.2c8.1,0,15.9,0.3,23.5,0.6l1.9,0.1c25.1,1,56.4,2.1,83.7,23.7c15.4,12.1,21.7,29.2,25.9,40.4l0.7,2
				c4.2,11.2,8.1,22.4,11.9,33.3c3.9,11.2,7.6,22,11.6,32.5c0.5-0.7,1.1-1.2,1.6-1.8c0.7-0.8,1.5-1.5,2.3-2.1c0.5-0.4,1-0.8,1.5-1.1
				l0.1-0.1c0.6-0.4,1.3-0.9,2-1.2c0.5-0.3,1-0.5,1.5-0.8s1-0.5,1.5-0.7s1-0.4,1.4-0.6l1.2-0.4l0,0c9.2-5,18.7-5.6,23.7-5.9h0.6
				c11.8-1.4,23.2-1.4,33.4-1.5c2.6,0,13.4,0.3,24,1c18.3,1.2,35.6,2.3,46.8,17.6c1.5,2,2.8,4.2,3.8,6.5c10.1-4,20.4-7.6,30.7-10.8
				c42.3-13.1,87.3-19.8,133.8-19.8c6,0,12,0.1,18.1,0.3l4.5,0.2c27.1,0.9,66.5,2.2,95.2,26.2l1.2-2.1l1.5-2.5
				c0.9-1.6,1.9-3.1,2.8-4.7c0.5-0.9,1.1-1.7,1.6-2.6l1.2-2c0.5-0.9,1.1-1.7,1.6-2.6c1.5-2.4,3.1-4.8,4.6-7.2
				c14.7-22.6,31.3-43.9,49.7-63.6c17.8-18.9,33.7-32.5,50-42.8c1.2-0.8,2.5-1.5,3.8-2.3l0.7-0.4c4.2-2.5,8.5-4.6,13-6.5
				c4.5-2.2,9.2-4,13.9-5.5c7.9-2.3,16.1-3.9,24.3-4.6c11.2-1.1,23.1-1.7,35.5-1.7c9.6,0,19.5,0.3,30.2,1
				c21.5,1.3,50.9,3.1,75.6,21.5c7,5.2,12.9,11.7,17.4,19.1c0.6-0.7,1.3-1.3,1.9-1.9l0.3-0.3c0.6-0.5,1.1-1,1.8-1.4l0.1-0.1
				c0.8-0.5,1.5-1,2.3-1.5c0.5-0.3,1-0.6,1.6-0.9s1.1-0.5,1.6-0.7s0.9-0.4,1.4-0.5l0.2-0.1l0.8-0.3l0.2-0.1c9-4.8,18.4-5.5,23.8-6
				h0.4c11.8-1.4,23.3-1.4,33.4-1.5h0.6h4.3c38.4,0,51.9,3.2,62.8,14.7c7,7.4,10.7,17.2,10.4,27.3c-0.7,24.1-0.9,46.7-0.6,68.1
				c2.1-2.6,4.1-5.4,5.9-8.2c1-1.6,2.1-3.1,3.4-4.4c0.4-0.5,0.9-0.9,1.4-1.3s1.2-1,2-1.7c0.5-0.3,1-0.7,1.4-1s1.1-0.7,1.8-1.1
				c0.4-0.2,0.9-0.5,1.4-0.7c0.5-0.2,1-0.5,1.5-0.7l1.1-0.5c0.4-0.2,0.8-0.3,1.2-0.4c9.1-5,18.4-5.6,23.2-5.8h0.7
				c11.8-1.4,23.3-1.4,33.5-1.5h2.3c10.4-0.1,20.9,0.4,31.3,1.5l1.2,0.1l0.5,0.1c12.4,1.7,30.8,4.3,39.5,23.7
				c4.1,9.2,4.5,19.6,0.9,29c11-1.5,21.9-2.7,32.6-3.7c26.1-2.3,51.9-3.4,76.8-3.4c9.1,0,18.2,0.2,27.3,0.5c1-6.4,2.1-13,3.4-20.2
				c8.3-45.6,18.6-81.1,32.6-111.6c0.9-2.1,2.2-4,3.6-5.8l0.2-0.3c0.4-0.5,0.9-1,1.4-1.5c0.7-0.7,1.5-1.4,2.3-2.1
				c0.5-0.4,1-0.8,1.6-1.2l0.2-0.1c0.7-0.5,1.3-0.9,2-1.2c0.4-0.2,0.9-0.5,1.4-0.7l0.1-0.1c0.5-0.2,1-0.5,1.5-0.7
				c0.4-0.2,0.9-0.4,1.4-0.6l1-0.3l0,0c9.2-5,18.7-5.6,23.6-5.9h0.6c11.8-1.4,23.2-1.4,33.4-1.5h2.4c4.2,0,8.1,0,11.8,0.2l0.7-2.6
				c0.8-2.9,2-5.6,3.7-8c0.6-0.9,1.2-1.7,1.9-2.5c0.8-0.9,1.6-1.8,2.6-2.6c0.8-0.7,1.4-1.2,1.9-1.5c0.7-0.5,1.5-1,2.2-1.5
				c0.5-0.3,1-0.5,1.5-0.8l0.2-0.1c0.5-0.2,1-0.5,1.6-0.7s0.9-0.4,1.4-0.5h0.1l1-0.3h0.1c9.2-4.9,18.8-5.6,23.8-5.9h0.5
				c11.8-1.4,23.2-1.4,33.3-1.5c3.3,0,14,0.3,24,1c18.2,1.2,35.5,2.2,46.7,17.5c6.8,9.3,9.1,21.2,6,32.3
				c-6.3,23.3-11.9,46.4-16.7,68.5c-7.5,34.4-15.8,74.4-18.9,113.7c-0.7,11.6-6.9,22.2-16.6,28.6c4.7,5.4,9.1,11.2,13,17.2
				c16.3,24.9,24.2,53.5,24.9,90c0.9,50.1-10.3,99.7-32.7,144.5c-21,42.1-51.7,80.7-91.4,115.4c50.1,7.3,103.1,15.5,160.5,24.6
				c16.6,2.5,29.5,15.9,31.4,32.6c1,8.6,0.4,29.7-26.2,41.2c-9.5,4.4-19,6.3-26.7,7.9h-0.2c-1.5,0.3-3,0.6-4.5,0.9
				c-2.1,0.5-4.4,1-6.7,1.6C2097,1287.4,2081.5,1291,2065.8,1291z"/>
			<path class="st7" d="M1652.7,1134.2c31.6,3.2,63.3,6.7,95.2,10.4c19.2,2.2,39.2,4.7,59.4,7.2l0.8-0.6c1.7-1.2,3.4-2.4,5.1-3.6
				l3.4-2.4l0.5-0.4c1.1-0.8,2.2-1.5,3.2-2.3c2.8-2.1,5.2-3.8,7.4-5.5c35.7-27.6,64.1-58,84.4-90.4c1-1.6,2-3.2,2.9-4.8l0.7-1.1
				c1-1.6,1.9-3.2,2.8-4.8l0.2-0.3c0.9-1.6,1.7-3.1,2.6-4.7l0.5-1c0.9-1.7,1.8-3.4,2.6-5.1l0.2-0.4c0.8-1.6,1.6-3.2,2.4-4.8l0.4-0.8
				c0.8-1.8,1.6-3.5,2.4-5.3l0.2-0.5c0.7-1.6,1.5-3.3,2.2-5.1l0.2-0.4c0.8-1.9,1.5-3.8,2.3-5.6l0.1-0.2c0.7-1.9,1.4-3.8,2.1-5.6
				l0.1-0.2c0.7-1.9,1.4-3.8,2-5.7l0.1-0.2c1.3-3.8,2.5-7.8,3.6-11.8v-0.2c2.2-7.9,4-15.9,5.4-23.9c1.1-7.5,1.7-15.1,2-22.7
				c0.4-12.4,0.6-25.3-1.3-35.8c-3.4-19.4-15.1-37.7-32.9-51.8c-12.1-9-26.8-16.5-43.6-22.1c-4.6-1.5-9.3-3-14.2-4.3l-2.4-0.6
				l-1.8-0.4c-2.8-0.6-5.8-1.2-8.8-1.8c-2.5-0.5-5-0.9-7.6-1.3l-2.6-0.4c-1.1,0-2.1,0-3-0.1c-2.1-0.2-4.1-0.5-6.1-1h-0.1l-1.3-0.2
				l-4.1-0.4l-2.4-0.2l-4.9-0.1h-0.6c-2.1,0.2-3.6,0.2-4.6,0.3s-2.2,0.3-3.3,0.3l-1.5,0.1c-1.1,0-3.2,0.2-4.1,0.2
				c-2.4,0.2-4.8,0.5-7.1,0.8c-2.1,0.2-4.2,0.5-6.3,0.8c-1.2,0.1-2.4,0.2-3.6,0.3l-0.7,0.1c-1.3,0.3-2.8,0.6-4.5,0.8
				c-5.3,0.8-10.8,1.7-16.2,2.7c-11.7,2.1-23.7,4.7-35.7,7.5c-3.3,0.8-9.9,2.5-15.1,3.9c-5.4,1.5-10.9,3-16.5,4.6
				c-10.8,3.2-21.9,6.7-32.9,10.4c-20.5,7-41.5,15-62.5,23.8c-10.5,4.4-20.4,8.7-29.8,13c4.1,20.3,9,39.8,14.7,58.1
				c16.6,53.9,41.5,103.1,73.9,146.1c7.9,10.6,9.7,24.6,4.7,36.8C1659.4,1126.3,1656.4,1130.6,1652.7,1134.2z"/>
			<path class="st7" d="M265,1048.3c-10.2,11.7-21.4,22.4-33.5,32.1c-26.9,21.5-58.2,39.4-93.5,53.3c64.5-3.4,130.1-6.8,196.4-9.9
				c-21.5-12.5-41.5-31.7-57.4-55.3C272.7,1062,268.6,1055.2,265,1048.3z"/>
			<path class="st7" d="M1355.1,1111.6c10.2,0.5,20.3,1,30.4,1.6c40.8,2.2,82.2,5,124.1,8.2c-17.2-23.7-32.4-48.9-45.4-75.1
				c-5.6,4.8-11.2,9.3-16.8,13.6c-27.7,21.3-54.7,37.1-82.7,48.1C1361.6,1109.2,1358.4,1110.4,1355.1,1111.6z"/>
			<path class="st7" d="M667.9,1064.6c-3.7,3.1-7.5,6.1-11.2,9.1c-20.6,16-40.6,28.9-60.7,39c31.7-1.2,62.4-2.2,92.1-3.1
				c-1.1-1.6-2-3.3-2.8-5C679,1091.2,673.2,1077.9,667.9,1064.6z"/>
			<path class="st7" d="M780.6,878.3c3.9,62.1,21.9,127.5,53.3,194.2c4.9,10.5,4.8,22.8-0.5,33.2c55.7-1.1,108.6-1.8,159.6-1.9
				c-25.1-37.1-41.8-79.1-49-123.3c-8.6-51.9-4.2-103.2,1.8-150.9c0.5-4,1.1-8,1.7-11.8c3.1-20.9,3.4-30.2,0.7-34.8l-3.5,0.8
				c-7.6,1.9-14.6,3.9-21.3,6.1c-39.7,12.7-76.9,32.1-110,57.4c-11.5,8.9-22.4,18.5-32.8,28.7C780.5,876.8,780.6,877.6,780.6,878.3z
				"/>
			<path class="st7" d="M-34,1079.2c1.1,0.8,2.2,1.6,3.3,2.3l3.2-0.7c1.8-0.4,3.6-0.8,5.5-1.2l1.9-0.5l2.6-0.6
				c8.6-2.2,16.3-4.4,23.3-6.6c12.4-3.9,24.5-8.5,36.4-13.7c9.8-4.5,19.2-9.4,28.1-14.6l1.4-0.8c1.7-1,3.4-2,5-3.1l1.9-1.2
				c1.5-0.9,3-1.9,4.5-2.9l0.6-0.4l1.4-1c1.5-1,3-2,4.4-3.1l0.9-0.6l1-0.7c2.2-1.6,4.1-3,5.9-4.3c15.4-12,28.2-25,38.1-38.6
				c0.7-1,1.5-2,2.2-3.1l0.6-0.9c0.6-0.8,1.1-1.7,1.7-2.5l0.5-0.7c0.7-1.1,1.3-2.1,2-3.2l0.4-0.6c0.5-0.9,1.1-1.8,1.6-2.7l0.5-0.9
				c0.6-1.1,1.2-2.1,1.8-3.2l0.2-0.3c0.6-1.1,1.2-2.2,1.7-3.4l0.3-0.7c0.5-1,1-2,1.4-3l0.3-0.6c0.5-1.2,1.1-2.4,1.6-3.5l0.1-0.2
				c0.5-1.2,1-2.4,1.5-3.6l0.2-0.6c0.5-1.3,1-2.5,1.4-3.7l0,0c0.5-1.3,0.9-2.6,1.3-3.9l0.1-0.3c0.4-1.2,0.8-2.4,1.1-3.6l0.1-0.5
				c0.8-2.5,1.5-5.2,2.1-7.8l0.1-0.3c0.6-2.6,1.1-5.1,1.5-7.5c0.9-6.9,1.1-13.9,0.8-20.9c-1-19.9-11.1-38.4-28.5-52.2
				c-7.1-5.2-14.9-9.7-23-13.2c-4.8-2.1-9.7-3.9-14.8-5.5c-2.9-0.9-5.9-1.8-8.9-2.6l-1.4-0.4l-1.1-0.2l-1.8-0.4l-2.5-0.5
				c-2.9-0.6-5.9-1.1-8.9-1.6l-2.8-0.4l-1.4-0.2l-3-0.3c-0.9,0-1.8,0-2.6-0.1l-8.4,0.4H53c-0.8,0.2-1.6,0.3-2.4,0.4
				c-2.8,0.4-5.7,0.9-8.5,1.4c-5.9,1.1-11.3,2.2-16.3,3.4l-4.4,1.1l-3.6,1c-2.7,0.8-5.4,1.5-8,2.3c-5.7,1.7-11.4,3.7-17,5.7
				c-28.2,10.4-55.1,24-80.2,40.5c-0.2,30.3,2.1,60.5,7,90.4C-71.4,1027.5-56.6,1061-34,1079.2z"/>
			<path class="st7" d="M444,1052.6c2.4,1.8,4.7,3.4,7,4.8c6.9-2.1,13.6-4.5,20.3-7.4c9.2-4.3,18.1-9.1,26.8-14.4l0.1-0.1
				c2.1-1.3,4.1-2.6,6.3-4l0.5-0.3c2-1.3,4-2.6,6-4l0.7-0.5c2.1-1.4,4-2.8,5.9-4.2l0.6-0.4c2-1.5,4-2.9,5.9-4.4
				c13.8-10.8,26.9-22.3,39.3-34.7c1.3-1.3,2.7-2.4,4.2-3.4c0.3-0.2,0.6-0.4,0.9-0.6c1.2-0.8,2.5-1.4,3.8-2l0.6-0.3
				c0.8-0.3,1.6-0.7,2.4-0.9c9-4.9,17.9-5.6,22.4-5.9h0.2l0.9-0.1c11.9-1.4,23.5-1.5,33.8-1.5h4.9c-3.6-16-6.6-32.1-8.7-47.9
				c0,0-59.5,0.6-52.3-24.8h-4c-2.7,0.1-5.3,0.1-8,0.2l-4.1,0.3l-0.6,0.1c-2,0.2-4.1,0.4-6.2,0.7l-1.4,0.2l-0.6,0.1
				c-1.9,0.3-3.7,0.6-5.6,0.9c-4.6,0.8-9.2,1.7-13.8,2.7l-4,0.9l-1.4,0.3c-2,0.5-4.1,1-6.2,1.6c-10.5,2.9-21.6,6.5-33,10.7
				c-25.5,9.5-52.7,22.1-85.3,39.7c-2.2,1.2-4.6,2.2-7,3.1C403,1012.3,428.3,1040.3,444,1052.6z"/>
			<path class="st7" d="M1229.3,1038.7c2.6,1.9,5.2,3.7,8,5.4c8.3-2.3,16.5-5.1,24.4-8.4l2.2-0.9c1.9-0.9,3.9-1.9,6.2-3l0.7-0.3
				c2-1,4-2,6.1-3.2l1-0.5c2-1.1,4.1-2.2,6-3.3l0.8-0.4c4.1-2.4,8.2-4.9,12.3-7.5l0.8-0.5c1.9-1.3,3.8-2.5,5.7-3.8l1-0.7
				c1.9-1.3,3.8-2.6,5.6-4l0.8-0.6c1.9-1.4,3.8-2.8,5.7-4.2c13.3-10.4,26-21.5,37.9-33.4c1.3-1.3,2.7-2.4,4.2-3.4l0.6-0.4l0.2-0.1
				c1.2-0.8,2.5-1.5,3.8-2.1l0.3-0.1l0.5-0.2c0.7-0.3,1.5-0.6,2.3-0.9c9-4.9,17.9-5.6,22.4-5.9h0.1l0.9-0.1
				c11.9-1.4,23.5-1.5,33.8-1.5h4.6c-1.3-4.4-2.6-8.9-3.8-13.4c-4.1,0.2-8.4,0.2-12.9,0.2c-4.2,0-8.7-0.1-13.8-0.2h-0.6
				c-8.7-0.2-19.6-0.5-30.3-2.6h-0.1c-26-4.5-32.2-23.1-33.7-30.9c-1-5.5-0.8-11.1,0.5-16.5v-0.3c0.1-1.9,0.4-3.7,0.9-5.5l0.3-1.2
				c-4.8,0.8-9.6,1.6-14.3,2.6c-2.7,0.6-5.4,1.2-7.9,1.7l-1.3,0.3l-3.1,0.8c-11.2,2.9-22.9,6.6-34.7,10.9
				c-26.4,9.6-53.8,22.2-86.2,39.6c-2.2,1.2-4.6,2.2-7,3.1C1188.4,998.4,1213.7,1026.4,1229.3,1038.7z"/>
			<path class="st7" d="M484.2,710c-8,9.2-16.1,19.5-24.3,30.9c-16.5,23-36.5,55.4-50.4,92.6c23.6-7.1,47.8-12.2,72.3-15.3
				c14.3-1.8,29.2-3,47.2-3.7c-1.3-2.5-2.6-5-3.8-7.4c-2.7-5.3-5.6-10.7-8.3-16.3c-9.3-18.8-17.6-38-24.7-57.7
				C489.3,725.2,486.7,717.5,484.2,710z"/>
			<path class="st7" d="M1273.8,691.3c-10.2,11.3-19.7,23.3-28.5,35.7c-16.6,23.1-36.7,55.7-50.6,93.2c25.1-7.4,50.8-12.8,76.8-15.9
				c14.6-1.8,30.4-3,48.8-3.7c-1.3-2.5-2.6-5-3.8-7.4c-2.6-5-5.5-10.7-8.3-16.3c-9.3-18.8-17.6-38-24.7-57.7
				c-3.1-8.6-6-17.1-8.7-25.3L1273.8,691.3z"/>
		</g>
		
			<radialGradient id="Literki_Biale_1_" cx="857.327" cy="903.9447" r="946.6689" gradientTransform="matrix(1 0 0 -1 0 1808.9805)" gradientUnits="userSpaceOnUse">
			<stop  offset="0" style="stop-color:#3D393B"/>
			<stop  offset="1" style="stop-color:#FFFFFF"/>
		</radialGradient>
		<path id="Literki_Biale" class="st8" d="M-262.3,925h0.5c9.5,1,19,1.4,28.6,1.3h2.3c3.9,0,8,0,12.2-0.1c0.1,0,0.1,0.1,0.1,0.1
			c3.1,41.7,10.5,77.7,22.6,109.8c19.9,53,52.6,85.1,94.7,92.8c14.3,2.6,30.1,3.8,49.5,3.8c8.3,0,16.4-0.2,22.5-0.4
			c16-0.5,30-1.5,42.9-3c23.8-2.9,47.4-7.5,70.5-13.8c51.7-14.3,96.1-36,132-64.7c22.4-17.9,40.6-38.9,53.7-61.9
			c0-0.1,0.1-0.1,0.2-0.1c0,0,0,0,0.1,0.1c5.7,19.6,14.4,38.3,25.7,55.4c19.9,29.6,46.8,50.8,73.6,58.3c14.1,3.9,28.6,4.6,41.2,4.9
			h0.1h1.2l4.6,0.2c11.2,0.5,21.3,0.7,30.9,0.7c17.3,0.1,34.7-0.9,51.9-2.9c24.9-3.1,47.1-8.7,67.7-17.1
			c24.7-10.1,49-24.7,74.5-44.5c12.3-9.7,24.2-20,35.4-30.9c0.1,0,0.1,0,0.2,0c0,0,0,0,0,0c8.3,24,17.8,47.5,28.7,70.5
			c4.1,8.6,15,9.4,21.6,9.9h0.3c9.6,1,19.2,1.4,28.9,1.3h2.2c9.6,0,20.6-0.1,31.3-1.4c12.2-1.4,18.2-3.1,21.4-9
			c1.9-3.5,2-7.8,0.3-11.4c-32.7-69.6-51.4-138-55.6-203.3c-0.3-4.5-0.5-9-0.7-13.7c0,0,0-0.1,0-0.1c13.3-13.8,27.7-26.6,42.8-38.4
			c35.3-26.9,74.9-47.6,117.2-61.1c7.3-2.3,14.8-4.5,22.9-6.5l2.2-0.5l2.2-0.5c1.7-0.4,3.4-0.8,5.1-1.1l3.9-0.8h0.1l1,0.4
			c2.7,1.2,5.3,2.7,7.7,4.4l0,0c15.2,12.6,13.6,31.8,9.5,59.5c-0.6,3.7-1.1,7.6-1.6,11.3c-5.8,45.8-10,94.8-1.9,143.6
			c7,42.6,23.5,83.1,48.5,118.3c4.4,6.3,12.6,7.4,19.9,8l0.8,0.1c9.6,1,19.3,1.4,29,1.3h2.3c9.6,0,20.6-0.1,31.3-1.4
			c17.1-2,20-5.8,21.9-10.1c1.5-3.6,1.3-7.6-0.5-11c0-0.1,0-0.1,0.1-0.2c0,0,0.1,0,0.1,0c10.4,7.7,22,13.6,34.4,17.3
			c13.7,4,27.3,4.6,41.3,5h1.7l9.5,0.4c9.1,0.4,17.9,0.6,26.3,0.6c17.7,0.1,35.4-0.9,53-2.9c25.2-2.9,48.6-8.6,69.6-16.8
			c25.9-10.2,51-24.8,76.9-44.8c13.6-10.5,26.6-21.9,38.8-33.9c0-0.1,0.1-0.1,0.2,0c0,0,0,0,0,0c2.9,6.8,5.9,13.5,9,20.1
			c14.7,31.1,32.6,60.5,53.3,88c4.6,6,12.5,7.1,19.6,7.7l0.9,0.1c9.6,1,19.3,1.4,29,1.3h2.3c9.6,0,20.6-0.1,31.2-1.4
			c1-0.1,4.4-0.7,7.4-1.3c5.6-1.1,11.8-2.4,14.5-9c1.7-4.1,1.1-8.8-1.6-12.3c-34.1-45.3-60.3-97-77.7-153.7
			c-8-26.2-14.3-52.9-18.9-79.9c0-0.1,0-0.1,0.1-0.2c14.9-7,30.5-14,47.6-21.2c21.5-9,43-17.2,64-24.3c11.3-3.8,22.7-7.5,33.8-10.7
			c5.7-1.7,11.4-3.3,17-4.8c5.4-1.5,12.1-3.2,15.7-4c12.5-3,24.9-5.6,37-7.8c5.7-1,11.4-2,16.9-2.8c1.2-0.2,2.3-0.4,3.4-0.6
			s2.2-0.4,3.1-0.5h0.2c0.9,0,1.8,0,2.7-0.2c2.2-0.3,4.4-0.5,6.6-0.8c2.5-0.3,5-0.5,7.6-0.8c0.8-0.1,3.7-0.2,5.1-0.3l1.4-0.1
			c0.7,0,1.4-0.1,2.1-0.3l0,0c0.5,0,1.4,0,6-0.4h1.7h1.3l4,0.1h0.2l3.5,0.2l4.7,0.4c0.7,0.1,1.6,0.2,2.6,0.4c0.4,0.1,6.4,0.8,7,0.8
			l0,0c1.6,0.2,3.2,0.5,4.7,0.7c2.8,0.5,5.6,1,8.3,1.5c3.2,0.6,6.4,1.3,9.5,2l2.1,0.5l2.8,0.7c5.4,1.4,10.7,3,15.7,4.7
			c19.2,6.5,36.2,15.2,50.4,25.8c22.6,17.8,37.6,41.6,42.1,67c2.3,12.8,2.1,27.3,1.7,41c-0.3,8.6-1.1,17.2-2.3,25.7
			c-6.3,36.3-19.7,71-39.4,102.1c-23.8,37.9-55.3,69.8-90.2,96.8c-9.4,7.2-19,13.9-28.9,20.4c0,0-0.1,0-0.1,0
			c-23-2.9-45.7-5.7-67.7-8.3c-123-14.4-244.4-24.9-360.9-31.3c-115.2-6.3-233.4-9.4-361.3-9.4h-21.4
			c-132.9,0.4-277.4,3.8-454.8,10.8c-201.5,7.9-401.3,18.6-587.2,28.9c-27.9,1.5-55.7,3.1-83.6,4.7c-19.2,1.1-77,11.6-78.3,12.3
			c-3.2,1-9.6,3.4-9,3.6c-2.6,3.8-0.1,10.9,0.8,12.8c2,4,8.7,13.2,21.5,13.2c2.9,0,5.8-0.2,8.7-0.6l0,0
			c189.5-10.7,392.8-21.8,596-30.3c182.5-7.7,330.3-11.8,464.9-12.9c24.1-0.2,48.1-0.3,71.4-0.3c111.7,0,214,2.3,312.9,6.9
			c114.8,5.4,234.1,14.9,354.8,28.2c40.3,4.4,81.1,9.3,123.9,14.8c0.1,0,0.1,0.1,0.1,0.1c0,0,0,0,0,0c-0.8,2-1,4.3-0.7,6.4
			c1.4,9.9,11.5,11.7,15.1,12.3c8.9,1.8,18.3,2,26.6,2.2h0.6c4.9,0.1,9.2,0.2,13.2,0.2c7.5,0,14.2-0.2,20.5-0.6
			c1.2-0.1,2.5-0.1,4-0.2c5.9-0.2,13.3-0.4,19.8-3.6c1.8-0.9,3.7-1.8,5.5-2.7h0.1c49.2,7,99.8,14.5,154.6,23
			c16.6,2.6,33.6,5.3,52,8.2c3.5,0.5,7.1,0.8,10.7,0.8c13.1,0,26.6-3.2,38.4-6c2.4-0.6,4.7-1.1,6.9-1.6c1.6-0.4,3.3-0.7,5-1.1
			c6.9-1.4,14.7-3,21.9-6.4l0.2-0.1c3.6-1.5,13.1-5.6,11.9-15.8c-0.6-4.7-3.9-10.1-11.5-11.3c-79-12.6-150.3-23.4-216.8-32.7
			c-0.1,0-0.1-0.1-0.1-0.1c0,0,0-0.1,0.1-0.1c59.7-41,103.4-88.9,130.3-142.5c20.6-41.2,30.9-86.7,30.1-132.8
			c-0.6-31.6-7.3-56-20.9-76.8c-13-19.9-30.3-34.8-48.2-45.8c-0.1,0-0.1-0.1,0-0.2c0,0,0.1-0.1,0.1-0.1c8.3,0,16.7-0.4,24.9-1.3
			l0.9-0.1c7.3-0.6,20.9-1.6,21.9-14.1c3.3-40.8,11.7-81.8,19.4-117c4.9-22.5,10.6-46,17-69.7c1-3.8,0.3-7.8-2.1-11
			c-3.8-5.1-9.2-6.6-29.3-7.9c-9.9-0.6-20.1-0.9-22.4-0.9c-9.6,0-20.6,0.1-31.2,1.4l-1.2,0.1c-4.4,0.3-7.4,1.1-13,2.4
			c-6.1,1.6-7,4.6-8.5,8.2c-2.9,6.9-2.9,10.5-4.7,17.8l-0.6-0.1l0,0c-9.6-1-19.3-1.4-29-1.3h-2.3c-9.6,0-20.6,0.1-31.2,1.4
			c-0.4,0-0.9,0.1-1.4,0.1c-4.4,0.3-10.9,3.3-14.8,6.3l0,0c-3.1,2.7-2.6,3.2-3.5,4.3c-11.6,13.3-26.1,65.6-32.7,101.7
			c-1.4,7.6-2.7,15.3-3.9,23c-1,6.3-1.9,12.3-2.7,18.1c0,0.1-0.1,0.1-0.1,0.1c-15.5-1-31.4-1.5-47.4-1.5c-24.2,0-49.3,1.1-74.7,3.3
			c-31.1,2.8-62,7.7-92.4,14.7c-0.1,0-0.1,0-0.2-0.1c0,0,0-0.1,0-0.1c9-9.3,17.4-19,25.4-29.1c3.3-4.1,6.4-8.4,9.2-12.8
			c2.1-3.4,2.5-7.5,1.1-11.2c-3-7.6-9.8-8.8-21.8-10.4h-0.2h-0.2h-0.2c-9.6-1-19.2-1.4-28.8-1.3h-2.3c-9.6,0-20.6,0.1-31.2,1.4
			c-0.4,0-1,0.1-1.6,0.1c-4.2,0.2-14.2,1.8-16,2.8c-1.6,0.9-3,2.2-4,3.7c-4.1,6.3-8.7,12.3-13.6,18c-10.5,12.6-21.8,24.6-33.7,35.9
			c-0.1,0-0.1,0-0.2,0c0,0,0-0.1,0-0.1c-0.1-2.3-0.3-4.5-0.4-6.8c-2-36.7-2.4-76.2-1.1-120.9c0.1-3.6-1.2-7-3.7-9.6
			c-3.2-3.4-6.9-7.3-45.8-7.3h-4.2h-0.6c-9.6,0-20.6,0.1-31.2,1.3l-0.9,0.1c-4.4,0.3-11.6,0.9-16.6,4.4c-2.8,2.1-3.4,2.8-4.3,5.1
			c-0.7,1.6-1.1,3.4-1.1,5.2c-0.8,28.8-0.9,55.6-0.4,80.8c0,0.1-0.1,0.1-0.1,0.1c-0.1,0-0.1,0-0.1-0.1c-5-12.8-9.5-25.9-14-38.7
			c-4-11.6-8.1-23.6-12.7-35.4l-0.2-0.5c-4.1-10.7-8.7-22.7-19.8-31c-19.2-14.2-43.6-15.7-63.2-16.9c-10.2-0.6-19.6-0.9-28.8-0.9
			c-11.6,0-22.8,0.5-33.3,1.5c-6.7,0.6-13.4,1.8-19.9,3.7c-3.9,1.2-7.6,2.7-11.2,4.5l0,0c-5,2-9.9,4.6-14.4,7.5
			c-16.8,10.6-31.7,24.5-45.3,39c-17.4,18.7-33.1,38.8-47,60.3c-11.6,17.7-22,36.2-31.1,55.4c0,0.1-0.1,0.1-0.2,0.1c0,0,0,0-0.1-0.1
			c-2.2-6.6-5.5-12.8-9.9-18.2c-22-26.7-60.7-28-89-28.9l-4.6-0.2c-5.8-0.2-11.6-0.3-17.2-0.3c-44.2,0-86.9,6.3-127,18.8
			c-16.6,5.2-32.8,11.4-48.6,18.6c-5.2,2.3-10.4,4.7-15.5,7.2c-0.1,0-0.1,0-0.2-0.1c0,0,0-0.1,0-0.1c2.2-6.6,4.2-12.8,5.9-19
			c1.1-3.8,0.3-7.8-2-11c-3.8-5.1-9.2-6.6-29.3-7.9c-10.1-0.7-20.4-0.9-22.4-0.9c-9.7,0-20.6,0.1-31.2,1.4c-0.3,0-0.8,0.1-1.4,0.1
			c-4.4,0.3-18.2,2.1-20.3,6.5c-3.6,7.8-12.9,38.3-15.9,45.7c0,0.1-0.1,0.1-0.2,0.1c0,0,0,0-0.1-0.1c-3.9-7.6-7.8-15.4-11.4-23.1
			c-9.5-20.2-16.7-41-24.3-62.9c-3.7-10.8-7.6-21.9-11.7-32.8l-0.8-2c-3.6-9.7-8.2-21.8-18.2-29.8c-21.3-16.8-47.2-17.8-70.1-18.7
			l-1.9-0.1c-7.4-0.3-15-0.6-22.7-0.6c-17.4,0-39.1,1.4-59.3,11.2c-4.8,1.9-9.4,4.3-13.7,7.1c-37.8,24.4-68.1,62.7-92.5,100.5
			c-21.7,33.6-40.1,70.7-51,109.8c0,0.1-0.1,0.1-0.2,0c0,0,0,0,0,0c-9.5-12.7-21.1-23.6-34.2-32.4c-23-15.6-51.6-25.9-87.4-31.5
			c-24.6-3.9-51-5.8-85.5-6.1c-2.7,0-5.4,0-8.1,0c-15.6,0-30.1,0.5-44,1.5c0,0-0.1,0-0.1,0c-45.3-47.7-81.9-107.1-106.2-172
			c-1.7-4.6-3.5-9.6-5-14.4c-2.9-9.4-13.1-10.9-22.6-11.5c-9.6-1-19.2-1.4-28.8-1.3h-2.3c-2,0-12.6,0.5-22.4,1.2
			c-17.2,1.2-23.5,2.3-27.2,5.5c-2.4,2.3-2.7,3.3-2.7,3.3c-1.8,3.1-2.3,6.8-1.2,10.2c4.9,16.2,11.5,31.5,17.8,45.7
			c1.6,3.5,3.2,7,4.8,10.5c0,0.1,0,0.1-0.1,0.2c0,0,0,0,0,0c-0.6,0.3-1,0.7-1.3,1.3c-7.4,25-13.6,50.3-18.6,76
			c0,0.1-0.1,0.1-0.2,0.1c0,0-0.1,0-0.1-0.1c-1.6-13.1-3.6-26.4-5.7-39.7c-3.2-20.6-7.2-41.7-12-64.4c-2.1-9.7-12.3-11.2-16.1-11.8
			c-2.6-0.4-5.3-0.6-6.8-0.7c-9.6-1-19.1-1.4-28.8-1.3h-2.1c-1.7,0-12,0.3-22,0.9c-8.9,0.5-15,1.1-19.5,2.1c-0.1,0-0.1,0-0.1-0.1
			c-2.9-11.1-6-22.1-9.2-32.8c-2.9-9.4-13.1-10.9-22.6-11.6c-9.6-1-19.2-1.4-28.8-1.3h-2.3c-2,0-12.6,0.5-22.4,1.2
			c-17.2,1.2-23.5,2.3-27.2,5.5c-1.1,0.9-2.1,2.1-2.8,3.3c-1.8,3.1-2.2,6.7-1.2,10.1c18.4,61.4,30.8,124.5,37.1,188.3
			c0.4,4.3,0.9,8.8,1.2,13.2c0.8,11,12.3,12.8,16.1,13.5c2.5,0.4,5.5,0.7,7.1,0.8c9.5,1,19.1,1.4,28.6,1.3h3c3.2,0,12.8,0,22.3-0.5
			c6.1-0.3,10.7-0.7,14.4-1.3c0,0,0.1,0,0.1,0c3.2,3.2,9.3,6.4,45,6.4h4.1h0.5c9.6,0,20.6-0.1,31.2-1.3l0.9-0.1
			c1.6-0.1,4-0.3,6.5-0.7c0.1,0,0.1,0,0.2,0.1c0,0,0,0,0,0c-1.8,17.1-3,34.2-3.7,51.3c0,0,0,0.1,0,0.1c-21.9,15.5-42.2,33-60.8,52.3
			c-1.2,1.3-2.4,2.6-3.6,3.9c-0.2,0.3,0.4-1-1,2.1c-1.3,4.1-0.9,6.6,0.5,10.6c2.7,7.8,10,9,21.1,10.7l0.7,0.1 M1342.3,814.1
			C1342.2,814.1,1342.2,814.1,1342.3,814.1c-3.4,0.1-6.4,0.1-9.3,0.2c-23.5,0.7-42.4,1.9-59.6,4c-38.7,4.8-76.7,14.5-112.9,29
			l-2,0.8c-0.1,0-0.1,0-0.2-0.1c0,0,0-0.1,0-0.1c11.7-58.9,42.2-111,67.1-145.7c19.2-26.8,38.1-47.9,57.5-64.3c0.1,0,0.1,0,0.2,0
			c0,0,0,0,0,0c1.1,2.6,2.1,5.4,3,8.1c0.4,1.1,0.8,2.2,1.2,3.3c3.1,8.6,6.1,17.5,9,26.1c2.7,8.1,5.6,16.5,8.6,24.8
			c6.8,18.8,14.7,37.2,23.6,55.2c2.6,5.3,5.4,10.7,8.1,15.8c4,7.7,8.1,15.6,11.7,23.5l0.2,0.4c0.8,1.6,1.5,3.3,2,5.1c0,0,0,0,0,0.1
			C1348.8,805.5,1346,810.2,1342.3,814.1L1342.3,814.1z M551,828C551,828,551,828,551,828c-3.2,0.1-6.1,0.1-8.9,0.2
			c-23.4,0.7-41.4,1.9-58.3,4c-37.6,4.8-74.5,14.6-109.6,29l-1.3,0.5c11.7-58.9,42.2-110.9,67-145.6c17.7-24.8,35.2-44.7,53-60.5
			c0.1,0,0.1,0,0.2,0c0,0,0,0,0,0c0.6,1.5,1.1,3.1,1.7,4.6c0.4,1,0.7,2,1.1,3c3.1,8.6,6.1,17.5,9,26.1c2.7,8.1,5.6,16.5,8.5,24.8
			c6.8,18.8,14.7,37.2,23.6,55.2c2.6,5.4,5.4,10.7,8.1,15.9c4,7.7,8.1,15.6,11.7,23.5l0.2,0.4c0.8,1.6,1.5,3.3,2,5c0,0,0,0,0,0.1
			C557.5,819.3,554.7,824.1,551,828L551,828z M-117.4,796c-2.6-26.3-5.1-62.5-4.9-67c0-0.1,0.1-0.1,0.1-0.1c0,0,0.1,0,0.1,0
			c5,6,16.5,28,37,52.6c0,0.1,0,0.1,0,0.2c0,0,0,0,0,0c-6.3,2-26,12.1-32.2,14.4c0,0.1-0.1,0.1-0.2,0S-117.6,796-117.4,796
			L-117.4,796L-117.4,796z M12,1085.1c-7.6,2.4-15.7,4.7-24.8,7.1l-2.2,0.5l-2.7,0.6c-1.9,0.4-3.9,0.9-5.8,1.3
			c-3.8,0.8-7.7,1.6-11.6,2.3h-0.1c-4.9-2.2-9.5-5-13.8-8.2c-27.7-22.1-45.4-60.5-55.7-120.7c-5.7-33.4-8.1-69.7-7.2-107.9
			c0,0,0-0.1,0.1-0.1c30.9-21.3,63-38.2,95.8-50.1c6-2.2,12.1-4.2,18.2-6.1c2.8-0.9,5.7-1.7,8.6-2.5l3.9-1.1l1.3-0.3l3.2-0.8
			c5.6-1.4,11.4-2.6,17.9-3.8c3.1-0.6,6.2-1.1,9.2-1.5l1.9-0.3c0.8-0.1,1.7-0.3,2.2-0.3v0c1.4-0.1,2.3-0.2,3-0.2
			c0.8-0.1,3.9-0.2,5.4-0.3l1.4-0.1l0,0c1.2,0.2,2.3,0.2,3.5,0.3h1l0.6,0c1.4,0.1,2.7,0.2,4.1,0.4h0.2l1.8,0.3l3.2,0.5
			c3.3,0.5,6.6,1.2,9.8,1.8l2.8,0.6l2,0.4l1.4,0.3l1.9,0.5c3.4,0.9,6.8,1.9,10.1,2.9c5.8,1.8,11.4,4,17,6.4
			c9.9,4.3,19.2,9.7,27.9,16.1c23.1,18.2,36.7,43.2,38,70.5c0.4,8.6,0.1,17.3-1,25.9c-4.6,26.1-15.1,50.8-30.7,72.2
			c-12.1,16.6-26.8,31-42.9,43.5c-18.6,14-38.6,25.9-59.8,35.5C38.2,1076,25.2,1080.9,12,1085.1L12,1085.1z M663,983.7h-0.4
			c-9.5-1-19.1-1.4-28.7-1.3h-2.2c-9.6,0-20.6,0.1-31.2,1.4c-0.6,0.1-1.3,0.1-1.9,0.2c-4.1,0.3-14.7,1.7-19.7,6.5
			c-13.4,12.8-27,25.4-41.6,36.7c-18,13.6-37.1,25.7-57.5,35.1l-0.2,0.1c-8.7,3.7-17.6,6.9-26.8,9.4c-1,0.3-2.1,0.6-3.2,0.8
			l-0.2,0.1l-2.2,0.5h-0.1c-6.4-3.1-12.6-6.8-18.2-11.1c-21.3-16.7-56.4-56-60.6-136.3c0-0.1,0-0.1,0.1-0.1c0,0,0,0,0,0h1.6
			c6.1-0.2,13.7-0.3,20.1-3.8c33.7-18.1,61.7-31.1,88.2-41c12-4.5,23.8-8.3,35-11.3c2.3-0.6,4.6-1.2,6.8-1.8l1.7-0.4
			c1.4-0.3,2.9-0.7,4.3-1c5-1.1,10-2,14.9-2.9c2.1-0.3,4.2-0.7,6.3-1l0.4,0l0,0l0.4,0l1.7-0.2c2.2-0.3,4.5-0.5,6.7-0.7l1-0.1
			c1.6-0.1,3.2-0.2,4.9-0.3c2.9-0.1,5.8-0.2,8.7-0.2h7h3.3c5.1,0,10.3,0,15.5-0.1h0.1c0.4,0.2,0.7,0.3,1.1,0.4
			c-2.6,3.3-3.3,7.7-2,11.6c2.6,7.9,9.5,9,21,10.9l1.8,0.3c9.5,0.9,19,1.4,28.6,1.3h1.2c0.1,0,0.1,0.1,0.1,0.1
			c2.2,23.2,6,46.2,11.2,68.9c2.3,10,4.9,20.1,7.9,30.2c0,0.1,0,0.1-0.1,0.2c0,0,0,0-0.1,0l-3.2-0.5l-0.9-0.2
			C665.5,984.2,663,983.7,663,983.7z M1454.3,969.9h-0.4c-9.5-1-19.1-1.4-28.7-1.3h-2.2c-9.6,0-20.6,0.1-31.2,1.4
			c-0.6,0.1-1.3,0.1-1.9,0.2c-4.1,0.3-13.5,0.6-19.7,6.5c-13.1,12.2-26.1,24.5-40.2,35.4c-17.8,13.7-37,25.4-57.3,35l-2.8,1.2
			c-8.9,3.7-18,6.9-27.3,9.4l-1.9,0.5l-1.2,0.3c-1,0.2-2,0.4-3.1,0.7c-1.1,0.2-1.8,0.4-2.7,0.6h-0.2c-6.8-3.1-13.2-7-19.1-11.6
			c-21.3-16.7-56.4-56.1-60.6-136.3c0-0.1,0-0.1,0.1-0.1c0,0,0,0,0,0h1.6c6.1-0.2,13.7-0.3,20.1-3.8c33.5-18,61.9-31,89.3-41
			c12.6-4.6,24.9-8.4,36.8-11.5l3.4-0.9l1.6-0.4c2.7-0.6,5.5-1.2,8.4-1.8c5.1-1.1,10.4-2,15.6-2.8l3.6-0.5l1.3-0.2l0.4,0l4.1-0.5
			c1.2-0.1,2.4-0.2,3.6-0.4l0.8-0.1c0.5,0,1.1-0.1,1.6-0.2l0.9-0.1c2-0.1,4-0.2,6-0.4l5.8-0.2h12.8c14.9,0,29.6-0.2,44.3-2.1
			c0.6-0.1,1.1-0.2,1.6-0.3c-6.7,4.3-13.4,8.5-20.2,12.7c-12.4,6.8-24.6,13.8-36.6,21.2c-1.6,1.1-2.9,2.5-3.8,4.1
			c-1.4,3.1-1.8,6.6-1.3,10c1.8,9.3,10.9,10.9,14.3,11.5l0.4,0.1c8.9,1.8,18.4,2,26.7,2.2h0.6c4.9,0.1,9.2,0.2,13.2,0.2
			c7.5,0,14.2-0.2,20.5-0.6c1.1-0.1,2.5-0.1,4-0.1c2,0,4.1-0.1,6.4-0.3c0.1,0,0.1,0,0.1,0.1c5.3,22.2,11.9,44,19.6,65.4
			c0,0.1,0,0.1-0.1,0.2c0,0,0,0-0.1,0c-1.7-0.3-3.5-0.6-5.4-0.9l-0.9-0.2"/>
		<g id="Wciecia_copy_4" class="st5">
			<path class="st6" d="M-325.2,572.3c1.7,4.8,13.6,42.6,23.5,116.8c0,0.2,0.2,0.4,0.4,0.4s0.4-0.2,0.4-0.4
				c0.8-19.8-4-56.2-8.4-87.3c-0.5-3.6,1.6-3.3,9.5-3.9c0.2,0,0.4-0.2,0.4-0.4c0-0.1,0-0.1-0.1-0.2c-2.3-3.6-15.2-23.9-15.9-25.5
				c0.6,0-7.2,0-9.4,0C-325.1,571.9-325.2,572.1-325.2,572.3C-325.2,572.3-325.2,572.3-325.2,572.3z"/>
			<path class="st6" d="M-318.7,790.6c14.4-1.3,20.9-7.2,23.5-17.2c0,0,0.6,8.9,0.6,16.1c0,1.7,3.6,4.7,9.4,5.4l-33.5,3.2
				L-318.7,790.6z"/>
			<path class="st6" d="M-270.5,887.5c25.1-24.7,117.2-76,117.2-76c-50.8,19.9-89.4,38-93.3,47.7
				C-246.1,859-270.5,887.5-270.5,887.5z"/>
			<path class="st6" d="M-117.6,796.7c12.3-6.5,21.9-11.8,55.9-23.1c-37.4,4.8-42.6,10.2-56.4,16.2
				C-118,791-117.6,796.7-117.6,796.7z"/>
			<path class="st6" d="M244,1025.6c22.3-26,35.1-49,40.3-87c-8.4,70.7-25.7,94.8-30.2,101.5C246.9,1031.4,244,1025.6,244,1025.6z"
				/>
			<path class="st6" d="M376.5,976.3c-9.5-39.7-10.5-62.2-6.8-99.6c1.8,42.2,14.5,47.3,22.9,43.7
				C393.6,923.9,376.5,976.3,376.5,976.3z"/>
			<path class="st6" d="M1161.3,962.9c-9.5-39.7-10.5-62.2-6.8-99.6c1.8,42.2,14.5,47.3,22.9,43.7
				C1178.4,910.4,1161.3,962.9,1161.3,962.9z"/>
			<path class="st6" d="M632.8,807.8c10.8-20.4,20.6-45.4,29.1-75.2h-16.6c0,0-15.7-7.3-11.6,6.4c6.1,11.6,11.8,29.6-1.3,68.7
				c0,0.1,0,0.2,0.1,0.3C632.6,808,632.8,807.9,632.8,807.8z"/>
			<path class="st6" d="M1061.4,944.6h-0.8c2.5,41.3,11.2,96.3,38.3,131.6c8.4,10.9-4.2,16.6-17.1,17.5c0,0,27.5,7.4,44.9,5.5
				c10.1-1.1,18.2-11.8,21.8-12.4C1095.7,1068.5,1068.3,1007.6,1061.4,944.6z"/>
			<path class="st6" d="M1095.2,725.8c-13.1,23.9-20.3,37.4-24.8,58.3c4.4-34,4.5-37.2-8.3-49.7c-12.3-12-22-13.5-22-13.5l13.7-4.9
				l28,13.3L1095.2,725.8z"/>
			<path class="st6" d="M1571.8,841.6c-18.4,7.7-46.9,21.3-86.2,41.2c-0.4,0.2-0.6,0.6-0.6,1l0,0c0,0.6,0.4,1.1,1,1.1
				c0.2,0,0.3,0,0.5-0.1c46.8-21.7,54.4-24.6,56.6-13.6c2.5,12.3,5.4,24.9,6,27.6c0.1,0.3,0.3,0.6,0.6,0.7l10.2,4.9
				c0.5,0.2,1.2,0,1.4-0.5c0.1-0.2,0.1-0.4,0.1-0.6l-3.6-28.2c0-0.2,0-0.3,0-0.5l6.3-18.9c0-0.1,0.1-0.2,0.1-0.3l8.7-12.1
				c0.4-0.5,0.3-1.2-0.2-1.5C1572.5,841.5,1572.1,841.4,1571.8,841.6z"/>
			<path class="st6" d="M1540.8,712.5l-0.9-26.4c0-0.3-0.1-0.6-0.3-0.8l-10-13.2c-0.5-0.6-1.3-0.8-2-0.3c-0.4,0.3-0.6,0.7-0.6,1.2
				c0,7.5,0.2,25,0.8,54.4c0.4,21.8-14.4,42.1-38.4,63c-0.5,0.4-0.8,1.1-0.8,1.7v1.7c0,0.9,0.6,1.2,1.2,0.6
				c28.8-24.2,50.1-47.2,60.6-58c0.3-0.3,0.4-0.6,0.4-1v-12c0-0.4-0.2-0.8-0.5-1.1l-9.1-8.7C1541,713.3,1540.8,712.9,1540.8,712.5z"
				/>
			<path class="st6" d="M1966,658.6c-0.2,1.4,0.3,2.7,1.3,3.7c0.2,0.2,0.4,0.3,0.5,0.3l0.2-0.2c7.4-54,18.7-79.2,23.3-88.7
				c2.6-5.4,11.6-10.5,19.1-11.1c7.2-0.7-10.8-7.9-12.1-8.4c0,0-0.1,0-0.1,0l-20.3,22l0,0l-10.9,5.7l0,0l-27.9,7.5
				c-0.1,0-0.1,0.1-0.1,0.1s0.1,0.1,0.1,0.1c2.7-0.1,17.6,0.5,29.8,0.9c3.1,0.2,5.4,2.8,5.2,5.8c0,0.2,0,0.3,0,0.4
				C1972.3,609.8,1968.5,640.5,1966,658.6z"/>
			<path class="st6" d="M2093.1,860.1l-33.5-48.3c-0.1-0.1-0.1-0.2-0.2-0.4l-10-30.4c-0.2-0.6-0.8-1-1.4-0.9l-11,1.3
				c-5.8,0.7-11.6-0.6-16.6-3.6c-11.1-6.6-30.8-16.6-85.8-24.8c-0.8-0.1-8.4-1.5-8.4-0.6l0,0c0,0.7,0.5,1.2,1.1,1.4
				c58.9,11.2,119.5,34.3,140.6,98.7c12.3,32.3,15.2,66.5,12.5,82l13-73.3C2093.4,860.8,2093.3,860.4,2093.1,860.1z"/>
			<path class="st6" d="M1836.3,743.2c13.1,0.5,31.1,1.3,39.3,2.4c-11-4.2-13-5.4-12.6-8s1.3-8.9,1.3-8.9l-5.9,4l-12.3,7
				L1836.3,743.2z"/>
			<path class="st6" d="M1960,729.4h0.4c-0.9,0-1.7,0.7-1.9,1.6c0,0-0.2,9.2-4.2,16.4c-0.6,1-4.4,6.2-6,6.6c-2,0.2-4,0.3-6,0.2
				l10.4,3.4l24.7,7.7c1,0.3,2.1-0.3,2.4-1.3c0.1-0.2,0.1-0.4,0.1-0.6l0,0c0-0.9-0.6-1.7-1.5-1.9l-15.3-3.5c-0.9-0.2-1.5-1-1.5-1.9
				c0-3.4,0-12.3,0.4-24.6C1962,730.4,1961.1,729.5,1960,729.4z"/>
			<path class="st6" d="M1873.2,1172.3c-26.8-5.5-53.1-10.8-46.6-15.2c0,0-10.6,3.4-15.3,2.9c-3.6-0.4-7.6-0.7-12.3-1.1h-35.8
				c-0.6,0-1,0.4-1.1,0.9s0.4,1,0.9,1.1c34.4,4.2,86.6,10.9,121.6,15.4c0.6,0.1,1-0.5-3.9-2.1
				C1880.3,1174.1,1873.7,1172.4,1873.2,1172.3z"/>
		</g>
		
			<radialGradient id="Cien_w_Srodku_1_" cx="827.5241" cy="933.0798" r="912.5657" gradientTransform="matrix(1 0 0 -1 0 1808.9805)" gradientUnits="userSpaceOnUse">
			<stop  offset="0" style="stop-color:#FFFFFF"/>
			<stop  offset="0.37" style="stop-color:#FDFDFD"/>
			<stop  offset="0.51" style="stop-color:#F6F6F6"/>
			<stop  offset="0.6" style="stop-color:#EAEAEA"/>
			<stop  offset="0.68" style="stop-color:#DADADA"/>
			<stop  offset="0.75" style="stop-color:#C4C4C4"/>
			<stop  offset="0.8" style="stop-color:#A8A8A8"/>
			<stop  offset="0.86" style="stop-color:#888888"/>
			<stop  offset="0.91" style="stop-color:#626262"/>
			<stop  offset="0.95" style="stop-color:#373737"/>
			<stop  offset="0.99" style="stop-color:#090909"/>
			<stop  offset="1" style="stop-color:#000000"/>
		</radialGradient>
		<path id="Cien_w_Srodku" class="st9" d="M649.3,803c-0.9,0.1-1.8-0.6-1.8-1.6c0-0.1,0-0.3,0-0.4c0,0,0-0.1,0-0.1
			c20.2-43.6,19.2-70.4,38.3-72.9h0.3c0.6,0,1.1-0.1,1.5-0.1h0.1c10.1-1.2,20.7-1.2,30.1-1.3c1.8,0,11.9,0.3,21.8,0.9
			c7.2,0.5,12,0.9,15.3,1.5c-5.9-0.2-10.6-0.4-12.1-0.4c-9.8,0-20.9,0.1-31.8,1.4l-0.8,0h-0.4c-4.9,0.3-21,1.8-24.5,9.5
			c-2.2,4.8-13.2,37-17.1,48.7v0.1c-1.6,4.8-4.9,8.9-9.4,11.3C654.9,801.7,651.4,802.9,649.3,803z M978.3,823.9
			c-5.7,45-9.9,93.2-2,140.7c5,30.8,15.3,60.5,30.3,87.9c-9.5-21.9-16.2-44.9-20.1-68.4c-8.2-49.4-3.9-98.9,1.9-145
			c0.5-3.8,1.1-7.7,1.6-11.4c3.9-26.1,5.4-43-6.7-54c-0.2-0.2-0.6-0.3-0.8-0.1c-0.2,0.1-0.2,0.4-0.2,0.6c1.4,12.2-0.5,25.6-2.5,38.8
			C979.3,816.4,978.7,820.2,978.3,823.9L978.3,823.9z M698.5,1040.3c-0.3,0.1-0.6,0.4-0.5,0.7c0,0.1,0,0.1,0,0.1
			c5.1,12.7,10.6,25.5,16.6,38.2c0.4,0.7,1,1.3,1.7,1.8c-6-13.8-10.6-25.4-15.5-39c-0.3-0.8-0.9-1.5-1.7-1.8
			C698.9,1040.3,698.7,1040.2,698.5,1040.3L698.5,1040.3z M484.9,842.1c-23.5,3-46.6,7.9-69.2,14.9c-5.2,1.6-9.2,5.8-10.5,11.1v0.1
			c-0.2,0.7,0.3,1.4,0.9,1.6c0.3,0.1,0.5,0,0.8-0.1c32.6-12.5,66.5-21.1,101.1-25.5c17-2.1,35.1-3.4,58.7-4.1l3.7-0.1
			c2.1,0,4-1.1,5.2-2.8c0.7-1,1.3-2.1,1.9-3.2c0.9-1.7,0.9-3.8,0.1-5.6l-0.1-0.3l-0.2-0.4c-3-6.6-6.5-13.3-9.9-19.9
			c0.6,1.3,1,2.7,1.4,4l0.5,2.5l-0.6,2.4l-0.1,0.3c-2.1,6.7-5.7,12.9-10.6,17.9c-1.9,1.9-4.4,3-7,3c-3.1,0.1-5.9,0.1-8.7,0.2
			C519.1,838.8,501.4,840.1,484.9,842.1z M483.8,1071.3l-0.4,0.2c-5.9,2.5-13.3,5.5-19.6,7.7c-0.7,0.2-1.1,1-0.8,1.7
			c0.1,0.4,0.4,0.7,0.8,0.8c1.9,0.8,4.1,1.4,6,2c2.1,0.7,4.4,0.8,6.6,0.2l0,0c8.9-2.5,17.6-5.6,26.1-9.2h0.1
			c18.8-8.7,37.3-20,56.5-34.6c14.5-11.2,28.2-23.3,41.1-36.3c5.9-5.9,18.6-7.6,22.8-7.9h0.1c0.6,0,1.1-0.1,1.6-0.1
			c11-1.3,22-1.3,31.8-1.4h2.2c2.6,0,3.4-0.6,3.4-0.6l-0.4-0.1l0,0h-0.2l0,0l-0.3-0.1c-9.2-0.9-18.4-1.3-27.6-1.3h-2.2
			c-9.4,0-20,0.1-30.1,1.3c-0.7,0.1-1.5,0.1-2.2,0.2h-0.1c-2.7,0.2-5.4,0.7-7.9,1.4c-3.3,1.1-6.3,2.9-8.8,5.4
			c-12.5,12.2-25.6,23.6-39.3,34.3C523,1050.3,503.6,1062.2,483.8,1071.3z M853.4,742.1c40.5-12.6,83.8-19,128.4-19
			c5.7,0,11.6,0.1,17.4,0.3l4.6,0.2l6.7,0.2c-10.7-1.3-21.4-2.1-32.2-2.2l-4.6-0.2c-5.6-0.2-11.3-0.3-16.9-0.3
			c-42.8,0-91.8,1.6-181.6,37.4c-0.6,0.2-0.9,0.9-0.7,1.5c0.1,0.3,0.4,0.6,0.7,0.7c3.4,1.2,7,2,10.5,2.6c6.2,1,12.6,0.1,18.4-2.4
			h0.1C820.2,753.6,836.6,747.3,853.4,742.1L853.4,742.1z M677.4,981.3c0.3,1.2,0.5,2.4,0.4,3.6c-0.2,5-4.2,9.1-9.2,9.6
			c5.4,0.1,10.3,0.4,15,0.8c0.9,0.1,1.7-0.6,1.8-1.5c0-0.2,0-0.4-0.1-0.6c-1.9-7-3.7-14-5.2-20.9c-4.8-21-10.3-53.1-12.6-74.6
			c-0.2-2.2-0.9-4.2-2-6.1c-1.3-2.1-2.7-3.4-5.6-4.9c-0.4-0.2-1-0.1-1.2,0.4c-0.1,0.2-0.1,0.4-0.1,0.5
			C662.8,919.2,669.1,950.5,677.4,981.3L677.4,981.3z M1274.4,828.2c-24.9,3-57.8,8.3-83.7,15.6c-5,1.4-8.8,5.4-10.1,10.4l0,0
			c-0.2,0.8,0.3,1.7,1.2,1.9c0.3,0.1,0.6,0.1,0.8,0c34.7-12.8,79.5-21.4,115-25.8c17.3-2.1,36.4-3.4,60-4.1l5.4-0.1
			c1.2,0,2.4-0.6,3.1-1.6c1.3-1.8,2.4-3.7,3.3-5.7c0.4-1,0.4-2.2,0-3.2l-0.6-1.4l-0.2-0.4c-3-6.6-6.5-13.3-9.9-19.9
			c0.3,0.8,0.6,1.6,0.9,2.4l0.4,3l-0.1,2.6l-0.4,2.3c-2.1,6.3-5.6,12-10.3,16.7c-1.8,1.9-4.4,3-7,3c-3.2,0.1-6.3,0.1-9.1,0.2
			C1309.8,824.9,1291.2,826.2,1274.4,828.2L1274.4,828.2z M1434.1,704.2c2.9-4.4,4.5-9.5,4.4-14.8c0-14.4,0.3-26.9,0.7-43.4
			c0-2.4,0.5-4.7,1.4-6.9c1.3-3.5,2.8-4.9,5.9-7.2l0.1-0.1c6.1-4.3,14.2-4.9,19.1-5.3l0.8-0.1c10.8-1.3,21.9-1.3,31.7-1.4h0.6h4.2
			c3.2,0,6.1,0,8.8,0.1c-6.3-1.4-17.6-2.1-33.8-2.1h-4.1h-0.6c-9.4,0-20,0.1-30.1,1.3h-0.2l-1.1,0.2c-3.1,0.2-8.8,0.7-11.6,2.6
			l-0.8,0.6v0.1l-0.1,0.3c-0.2,0.5-0.3,0.9-0.3,1.4c-0.4,14.1-0.6,63.6-0.7,76.6C1429.6,709.1,1431.9,707.5,1434.1,704.2
			L1434.1,704.2z M1463.7,980.7c4.6,0.2,8.9,0.4,13,0.8c0.7,0.1,1.4-0.5,1.5-1.2c0-0.2,0-0.4-0.1-0.6c-5.4-15.9-15.7-45.9-20.6-66.8
			c-0.8-3.5-3.2-6.5-6.5-8l-0.3-0.1c-0.3-0.1-0.6,0-0.7,0.3c0,0.1-0.1,0.2,0,0.3c4.5,19,16.1,49.3,20.7,62c1.9,5.3-0.8,11.1-6.1,13
			C1464.3,980.5,1464,980.6,1463.7,980.7L1463.7,980.7z M1386.8,980.3c-5.2,1.6-6.2,0.5-14.8,8.1c-12,10.6-24.4,22.3-36.1,31.4
			l-0.1,0.1c-18.4,14.1-38.2,26.2-59.2,36.1l-0.5,0.2l-2.6,1.1c-7.1,3-16.6,6.3-24.3,8.7c-0.6,0.2-1,0.9-0.7,1.6
			c0.1,0.3,0.4,0.6,0.7,0.7c0.7,0.2,1.3,0.4,2,0.5c6.8,1.5,13.8,1.1,20.4-1c6.8-2.2,16.1-5.2,21.3-7.4l2.4-1l0.2-0.1
			c20-9.4,38.9-21,56.4-34.4c13.3-10.3,26.4-22.4,39.7-35c5.6-5.3,18.6-7.6,22.9-7.9h0.1c0.6,0,1.1-0.1,1.6-0.1
			c11-1.3,22-1.3,31.8-1.4h2.1c2.6,0,5,0,7.4,0.1l-3.2-0.5l-0.3-0.1l-0.9-0.2l-0.3-0.1c-9.2-0.9-18.4-1.3-27.6-1.3h-2.2
			C1413.5,978.6,1389,979.7,1386.8,980.3L1386.8,980.3z M1091.9,772.2c6.3-3.5,11.4-8.9,14.7-15.3c6.9-13.2,14.7-26.4,23.1-39.4
			c14-21.7,30-42.1,47.6-61c16.6-17.7,31.4-30.3,46.3-39.8c4.8-3.1,9.8-5.7,15.1-7.9c3.8-1.9,7.7-3.5,11.8-4.7
			c6.8-2,13.8-3.3,20.9-3.9c10.6-1,21.9-1.6,33.8-1.6c7.5,0,15.2,0.2,23.4,0.6c-7-0.9-13.9-1.3-20.2-1.7c-10-0.6-19.2-0.9-28.2-0.9
			c-11.3,0-22.2,0.5-32.3,1.5c-6.1,0.5-12.1,1.6-18,3.3c-3.2,1-6.3,2.2-9.3,3.7l-0.3,0.2l-0.3,0.2h-0.1l-0.4,0.2
			c-4.5,1.8-8.7,4-12.7,6.7c-13.8,8.7-27.6,20.6-43.4,37.3c-17,18.2-32.4,38-45.9,58.9c-8.7,13.4-24.4,40.5-32.5,63.5
			c-0.3,0.8,0.2,1.7,1,2c0.3,0.1,0.5,0.1,0.8,0C1088.4,773.8,1090.2,773.1,1091.9,772.2z M1302.3,643.2L1302.3,643.2
			c-0.4-1.7-1.5-3-3.1-3.8c-2.1-1.1-4.2-2.1-6.4-2.9c-0.2-0.1-0.4,0.1-0.5,0.3c0,0.1,0,0.2,0,0.2c2.5,7.3,31,89.3,44.8,114.1
			c1.7,3,3.1,6.2,4.7,9.3C1335.4,746.4,1308.5,674.8,1302.3,643.2L1302.3,643.2z M1365.6,887.4c-0.3,1.1-0.4,2.2-0.3,3.2
			c0.3,1.4,0.9,2.6,6.2,3.5l0.6,0.1c1.4,0.3,2.8,0.5,4.2,0.7s7-3.1,7.9-3.7c9.7-5.9,27.1-16.3,34.4-20.7c2.7-1.6,4.9-3.9,6.3-6.6
			c3-5.5,4.8-12.4,1.3-14.5c-1.2-0.7-2.7-0.5-3.8,0.3c-14.4,10.1-46.8,31.1-56.4,37L1365.6,887.4z M1022,1128h-21.4
			c-132.8,0.4-277.2,3.8-454.5,10.8c-201.4,7.9-401.2,18.6-587,28.9c-27.9,1.5-55.7,3.1-83.6,4.7c-16,0.9-67.9,10.6-77.1,12.5
			c-0.2,0.1-0.4,0.3-0.3,0.5c0,0.2,0.2,0.3,0.3,0.3c3.9,1.2,15.4,3.3,21.8,1.2v0.1c9.1-2.8,65.1-11.8,79.5-12.6
			c27.9-1.6,55.7-3.1,83.6-4.7c185.9-10.3,385.7-21,587.2-28.9c177.5-7,322.1-10.4,455-10.8h21.4c128,0,246.2,3.1,361.5,9.4
			c37.9,2.1,76.3,4.6,115.2,7.5c-47.6-3.8-94.6-7-141-9.6C1267.7,1131,1149.7,1128,1022,1128L1022,1128z M525,708
			c-2.5-7.3-11.8-34.7-14.5-42.6c-0.6-1.7-1.4-3.3-2.4-4.8c-1-1.6-2.5-2.9-4.3-3.7c-0.4-0.2-0.8,0-1,0.3c-0.1,0.2-0.1,0.4,0,0.6
			c2.9,7.7,28,79.4,43.1,107.1c1.7,3,3.1,6.2,4.7,9.3c-6.4-14-12.1-27.6-17-41.3C530.6,724.6,527.8,716.1,525,708z M1659.5,707h-0.1
			c-9.2-0.9-18.4-1.3-27.7-1.3h-2.2c-9.4,0-20,0.1-30.1,1.3c-0.5,0.1-1.1,0.1-1.8,0.2h-0.4c-2.2,0.1-6,0.7-9,1.2
			c-2,0.4-3.7,1.4-4.9,3.1c-3.1,4.2-9.4,12.8-12.6,16.7c-3.9,4.7-26.1,30.3-63.4,59.3c-0.9,0.7-1,1.9-0.4,2.7c0.4,0.5,1,0.8,1.6,0.8
			c6.6-0.1,23.1-7.9,34.2-14c3.6-2,7-4.5,9.9-7.5c10-10.2,24.8-25.8,31.5-33.9c4.8-5.5,9.2-11.4,13.2-17.5c1.5-2.2,3.5-4.1,5.9-5.4
			c3.3-1.8,15.4-3.3,18.1-3.4h0.4c0.4,0,0.7,0,0.9-0.1c11-1.3,22-1.3,31.8-1.4h2.3c2.9,0,5.6,0,8.3,0.1c-1.5-0.2-3.2-0.5-5.2-0.8
			L1659.5,707z M-172.8,1062.6c-1-2.5-2.1-5.1-3-7.7c-11.2-29.8-21.1-77.9-25-117.1c-0.5-4.7-3.4-8.9-7.7-10.9h-0.1
			c-0.3-0.1-0.7,0-0.8,0.3c-0.1,0.1-0.1,0.2-0.1,0.4c1.6,9.8,13.8,81.6,22.6,105.2C-183,1043-178.3,1053-172.8,1062.6z M2064.3,572
			c-9.6-0.6-19.6-0.9-21.8-0.9c-9.4,0-20,0.1-30.1,1.3h-0.2l-1.3,0.1h-0.3c-3,0.2-11,0.5-12.9,4.3c-3.7,7.5-11.5,37.2-15.6,79.9
			c-0.3,3,1.8,3.6,3.7,2.5c5.5-3.5,9.8-8.7,12.2-14.8c0.1-0.7,0.3-1.3,0.4-2c0.8-3.8,8.5-49.4,10.6-54.4l0.3-0.6
			c1.5-3.7,3.4-8.3,11.6-10.4l1.9-0.5c3.9-1.1,7.9-1.8,12-2.1h0.3h0.7c10.8-1.3,21.9-1.3,31.7-1.4c1.6,0,6.4,0.1,12.4,0.4
			C2076.6,572.9,2071.7,572.4,2064.3,572z M1979,866.3c-0.1-0.3-0.5-0.4-0.7-0.2c-0.2,0.1-0.3,0.4-0.3,0.7c1.2,4,2.2,8.1,2.9,12.3
			c2.4,13.7,2.3,28.8,1.8,43.1c-0.3,9-1.1,17.9-2.4,26.8v0.3c-6.2,36.5-20.3,73.1-40.8,105.8c-20.9,33.3-87.3,94.1-96.6,102.5
			c-0.3,0.2-0.3,0.7-0.1,0.9c0.1,0.1,0.3,0.2,0.4,0.2c3.7,0.4,7.4,0.4,11.1,0.2c6.9-0.5,13.5-3.3,18.6-8.1
			c16.5-15.5,61.4-58.9,78.8-86.7c19.4-31,32.8-65.7,38.7-100.2c1.2-8.3,1.9-16.7,2.2-25.2c0.5-13.5,0.6-27.7-1.6-40
			C1989.1,887.3,1984.9,876.3,1979,866.3L1979,866.3z M1968.2,599.7c-4.1-0.2-9.2-0.2-13.9-0.2h-2.3c-9.4,0-20,0.1-30.1,1.3
			c-0.4,0-1,0.1-1.6,0.1h-0.3c-1.6,0.1-6.1,1.8-9.1,4.1l-0.5,0.4c-0.5,0.9-1.1,1.8-1.8,2.6c-8.6,9.9-22.8,55.2-30.4,96.9
			c-1.5,8.2-2.7,15.6-3.8,22.8c-1.2,7.8-0.7,9,8.1,14.1c0.7,0.4,1.6,0.2,2-0.5c0.1-0.1,0.1-0.3,0.2-0.5c0.8-4.5,2.6-15.1,3.7-21.5
			c6.2-34.1,20.7-88.7,33.7-103.9v-0.1c1-1.9,2.4-3.5,4.1-4.8l0.5-0.4l0.1,0c4.5-3.3,11.7-6.7,17.1-7h0.4c0.3,0,0.6,0,0.8-0.1
			c7.2-0.8,14.5-1.2,21.4-1.3c0.8,0,1.6-0.5,2-1.2c0.1-0.2,0.1-0.5-0.1-0.6C1968.4,599.7,1968.3,599.7,1968.2,599.7z M1860.4,755.2
			c0.1,0,0.1,0,0.2-0.1l0.1-0.1c0.1-0.1,0.1-0.2,0.1-0.2c0,0,0,0,0-0.1c-0.3-0.2-0.6-0.4-1-0.4l0,0c-14.8-0.9-30.1-1.4-45.4-1.4
			c-23.9,0-48.7,1.1-73.9,3.3c-14.9,1.3-67.4,7.8-86.2,10.6c-1.3,0.2-2.1,1.4-1.9,2.7c0.1,0.6,0.5,1.2,1,1.6l0.6,0.4
			c3.9,2.3,8.5,3.1,12.9,2.2c27.6-5.5,73.8-13.3,97.3-15.4c25.6-2.2,50.9-3.4,75.2-3.4c6.8,0,13.6,0.1,20.4,0.3
			C1860,755.2,1860.2,755.2,1860.4,755.2z M-153.5,820.5c-36.3,18.4-102,55.3-119.8,83.9c-4.3,6.9,1.3,9,9.1,10.2
			c0.7,0.1,3-1.3,3.2-1.6c0.6-0.6,1.2-1.2,1.8-1.9c23.1-33.2,93.6-74.5,106.2-81.4C-149.7,827.9-139.4,813.3-153.5,820.5z
			 M28.7,770.4c2.9,1.1,6.1,1.6,9.2,1.4c28.9-2.1,77.1-0.2,87.8,0.4c-40-4.8-75.2-7.1-101.5-4.9c-0.3,0-0.6,0.2-0.6,0.5
			c0,0.2,0.1,0.3,0.2,0.5C24.5,768.9,26.9,769.7,28.7,770.4L28.7,770.4z M0.2,1106.7c1.9-0.4,3.8-0.8,5.7-1.3l2.3-0.5l2.6-0.6
			c9-2.3,17-4.6,24.5-7c13.1-4.1,25.9-9,38.4-14.4c20.8-9.4,40.5-21.1,58.8-34.9c16.8-13.1,30.9-27.4,41.9-42.5
			c15.1-20.8,25.3-44.7,29.8-70c1.1-8.3,1.4-16.6,1-24.9c-0.8-15.9-6-31.2-15-44.3c2.9,8.6,4.5,17.5,5,26.5
			c0.5,9.2,0.1,18.5-1.1,27.7v0.2v0.2c-4.9,27.6-16,53.7-32.5,76.3c-11.8,16.2-26.9,31.5-44.8,45.5l-0.1,0.1
			c-19.2,14.4-39.9,26.7-61.7,36.6l-0.2,0.1c-13,5.7-26.3,10.7-39.9,15c-7.8,2.5-16,4.8-25.4,7.2l-2.7,0.7l-2.5,0.6l0,0
			c-0.6,0.1-1,0.7-0.8,1.4c0.1,0.3,0.2,0.5,0.5,0.7l0.1,0.1c3.8,2.3,8.3,3.1,12.6,2.3L0.2,1106.7z M285.3,828
			c5.8-0.3,10.9-4.1,12.8-9.7c10.3-30.3,24.2-52.8,44.9-84.8c30.8-47.7,61.5-81,93.9-102c4.6-2.9,9.4-5.4,14.4-7.5
			c21.3-10.3,44-11.6,61.3-11.6c7.7,0,15.4,0.3,22.8,0.6l1.9,0.1l2.7,0.1c-9.3-1.4-18.8-1.8-28.2-2.1L510,611
			c-7.3-0.3-14.8-0.6-22.3-0.6c-15.8,0-36.3,1.2-54.9,10.2l-0.3,0.2l-0.3,0.1c-4.2,1.7-8.2,3.7-12,6.2
			c-30.6,19.8-59.9,51.7-89.5,97.5c-20.5,31.8-38.7,67.3-49,98.8c-0.6,1.8,0.4,3.8,2.2,4.4c0.4,0.1,0.8,0.2,1.2,0.2L285.3,828z
			 M-251.2,608.9h2.3c3.6,0,6.9,0,10.1,0.1l-1.2-0.2c-2.2-0.3-4.5-0.5-5.8-0.6h-0.3h-0.2c-9.2-0.9-18.4-1.3-27.6-1.3h-2.3
			c-1.2,0-11.5,0.1-18.4,0.4c-0.3,0-0.5,0.3-0.5,0.6c0,0,0,0.1,0,0.1v0.2c0.5,1.8,2.2,2.9,4,2.7c4.7-0.5,12.2-0.8,17.5-1.1
			C-263.4,609.2-253,608.9-251.2,608.9z M-350.5,565.3h-0.2c-9.2-0.9-18.4-1.3-27.7-1.3h-2.2c-1.6,0-11.8,0.4-21.7,1.1
			c-5.8,0.4-19.4,1.4-21.4,3.1l-0.2,0.2l-0.2,0.2l-0.2,0.4c-0.4,0.7-0.5,1.4-0.3,2.2c18.5,62,31.1,125.7,37.5,190.1
			c0.4,4.3,0.9,9,1.2,13.5c0.1,1,5.6,3.5,7.9,4.3c0.3,0.1,0.7-0.1,0.8-0.4c0-0.1,0-0.2,0-0.2c-6.3-63-18.6-125.2-36.7-185.8
			c-1.4-4.7-0.8-9.8,1.6-14c1-1.8,2.4-3.5,4-4.8c4.9-4.1,11.9-5.3,30-6.6c9.9-0.7,20.6-1.2,22.7-1.2h2.3c3.6,0,7,0,10.3,0.1
			c-2.4-0.4-4.8-0.7-7.2-0.8L-350.5,565.3z M-180,622.9c1.5,3.3,3,6.6,4.8,10.4c1,2.2-1.5,12.1-4.2,21.5c-9.1,31.7-13,49.4-14,58.6
			c-0.1,0.7,0.4,1.3,1.1,1.4c0.4,0,0.7-0.1,1-0.4c4.5-4.6,13-12.6,13.9-14.5c2.6-5.4,10.1-38.4,11.9-44.7c0.3-0.9,0.2-1.9-0.2-2.8
			c-1-2.2-2-4.3-2.9-6.4c-6.4-14.3-13-29.8-18-46.3c-1.4-4.7-0.8-9.7,1.6-13.9c1-1.8,2.2-3.3,3.7-4.7l0.1-0.1l0.1-0.1
			c4.9-4.2,11.8-5.3,30.1-6.7c9.7-0.7,20.4-1.2,22.7-1.2h2.3c3.6,0,7,0,10.3,0.1c-2.4-0.4-4.8-0.7-7.2-0.8h-0.2h-0.2
			c-9.2-0.9-18.4-1.3-27.7-1.3h-2.2c-1.6,0-11.7,0.4-21.7,1.1c-5.7,0.4-18.9,1.3-21.3,3c-0.3,0.3-0.5,0.5-0.6,0.6l-0.2,0.3
			c-0.4,0.7-0.5,1.4-0.3,2.2C-192.6,594-186.2,609-180,622.9z M-63.1,789.5c3.2-4.4,3.8-10.5,2.4-10c-2.8,0.9-31.8,8.6-52.3,21.5
			c-2.1,1.3,7.5,5.2,13.5,5.2C-98.7,806.2-63.4,790-63.1,789.5z"/>
	</g>
</g>
<g id="Layer_2">
	<g>
		<g>
			<path class="st10" d="M206.3,805.7v-20.6h149v20.6h-51.8v216.7h127.5l9.6-8.1v-50.9h34.5v79.6H206.3v-20.6h43.6V805.7H206.3z"/>
		</g>
		<g>
			<path class="st10" d="M510.1,914.1c0-19.2,3.8-36.9,11.5-53.3c7.7-16.3,18.8-30.5,33.3-42.4c14.5-11.9,32.4-21.2,53.7-27.8
				c21.2-6.6,45.4-10,72.6-10c27.1,0,51.4,3.3,72.8,10c21.4,6.6,39.5,15.9,54.2,27.8c14.7,11.9,25.9,26.1,33.5,42.4
				c7.7,16.3,11.5,34.1,11.5,53.3c0,19.2-3.8,36.9-11.5,53.3c-7.7,16.3-18.9,30.5-33.5,42.4c-14.7,11.9-32.8,21.2-54.2,27.8
				c-21.4,6.6-45.7,10-72.8,10c-27.2,0-51.4-3.3-72.6-10c-21.3-6.6-39.1-15.9-53.7-27.8c-14.5-11.9-25.6-26-33.3-42.4
				C514,951,510.1,933.3,510.1,914.1z M570,914.1c0,15.7,2.3,30.5,6.9,44.2c4.6,13.8,11.7,25.7,21.3,35.8
				c9.6,10.1,21.6,18.1,36.2,24c14.5,5.9,31.7,8.8,51.5,8.8c18.2,0,34-2.9,47.4-8.8c13.4-5.9,24.5-13.9,33.3-24
				c8.8-10.1,15.4-22,19.9-35.8c4.5-13.8,6.7-28.5,6.7-44.2c0-15.7-2.3-30.5-7-44.2c-4.6-13.8-11.7-25.7-21.3-35.8
				c-9.6-10.1-21.6-18.1-36.2-24c-14.5-5.9-31.9-8.8-52-8.8c-19.2,0-35.5,2.9-49.1,8.8c-13.6,5.9-24.7,13.9-33.3,24
				c-8.6,10.1-14.9,22-18.7,35.8C571.9,883.6,570,898.4,570,914.1z"/>
			<path class="st10" d="M1201.1,1025.4c-6.7,2.9-14.4,5.8-23,8.5c-8.6,2.7-17.7,5-27.1,7c-9.4,2-18.9,3.6-28.5,4.8
				c-9.6,1.2-18.9,1.8-27.8,1.8c-29.7,0-56.1-2.6-79.3-7.9c-23.2-5.3-42.7-13.4-58.7-24.3c-16-10.9-28.1-24.8-36.4-41.7
				c-8.3-16.8-12.5-36.7-12.5-59.5c0-24.1,5-44.6,15.1-61.6c10.1-17,23.4-30.8,40-41.5c16.6-10.7,35.7-18.4,57.3-23.2
				c21.6-4.8,43.7-7.2,66.4-7.2c23.6,0,43.1,1.2,58.5,3.7c15.3,2.5,29.1,5.8,41.2,10v63h-30.7v-38.7l-6.7-7.4
				c-2.9-1.2-6.6-2.3-11-3.1c-4.5-0.9-9.2-1.6-14.1-2.2c-5-0.6-10.1-1-15.3-1.3c-5.3-0.2-10.1-0.4-14.6-0.4c-17.6,0-34,2.1-49.4,6.3
				c-15.3,4.2-28.7,10.7-40,19.5c-11.3,8.8-20.3,20.2-26.8,34.1c-6.6,13.9-9.8,30.5-9.8,49.9c0,34.9,11.3,61.9,33.8,81.1
				c22.5,19.2,54.9,28.8,97,28.8c10.5,0,19.6-0.6,27.1-1.7c7.5-1.1,14.1-2.5,19.9-4.2l7.2-6.6v-69.7h-50.8v-20.6h132.7v20.6h-33.5
				V1025.4z"/>
			<path class="st10" d="M1278.8,914.1c0-19.2,3.8-36.9,11.5-53.3c7.7-16.3,18.8-30.5,33.3-42.4c14.5-11.9,32.4-21.2,53.7-27.8
				c21.2-6.6,45.4-10,72.6-10c27.1,0,51.4,3.3,72.8,10c21.4,6.6,39.5,15.9,54.2,27.8c14.7,11.9,25.9,26.1,33.5,42.4
				c7.7,16.3,11.5,34.1,11.5,53.3c0,19.2-3.8,36.9-11.5,53.3c-7.7,16.3-18.9,30.5-33.5,42.4c-14.7,11.9-32.8,21.2-54.2,27.8
				c-21.4,6.6-45.7,10-72.8,10c-27.2,0-51.4-3.3-72.6-10c-21.3-6.6-39.1-15.9-53.7-27.8c-14.5-11.9-25.6-26-33.3-42.4
				C1282.6,951,1278.8,933.3,1278.8,914.1z M1338.7,914.1c0,15.7,2.3,30.5,6.9,44.2c4.6,13.8,11.7,25.7,21.3,35.8
				c9.6,10.1,21.6,18.1,36.2,24c14.5,5.9,31.7,8.8,51.5,8.8c18.2,0,34-2.9,47.4-8.8c13.4-5.9,24.5-13.9,33.3-24
				c8.8-10.1,15.4-22,19.9-35.8c4.5-13.8,6.7-28.5,6.7-44.2c0-15.7-2.3-30.5-6.9-44.2c-4.6-13.8-11.7-25.7-21.3-35.8
				c-9.6-10.1-21.6-18.1-36.2-24c-14.5-5.9-31.9-8.8-52-8.8c-19.2,0-35.5,2.9-49.1,8.8c-13.6,5.9-24.7,13.9-33.3,24
				c-8.6,10.1-14.9,22-18.7,35.8C1340.6,883.6,1338.7,898.4,1338.7,914.1z"/>
		</g>
	</g>
</g>
</svg>
